<?xml version="1.0" encoding="utf-8" standalone="no"?>
<!DOCTYPE svg PUBLIC "-//W3C//DTD SVG 1.1//EN"
  "http://www.w3.org/Graphics/SVG/1.1/DTD/svg11.dtd">
<svg xmlns:xlink="http://www.w3.org/1999/xlink" width="856.639517pt" height="424.599375pt" viewBox="0 0 856.639517 424.599375" xmlns="http://www.w3.org/2000/svg" version="1.1">
 <metadata>
  <rdf:RDF xmlns:dc="http://purl.org/dc/elements/1.1/" xmlns:cc="http://creativecommons.org/ns#" xmlns:rdf="http://www.w3.org/1999/02/22-rdf-syntax-ns#">
   <cc:Work>
    <dc:type rdf:resource="http://purl.org/dc/dcmitype/StillImage"/>
    <dc:date>2026-10-06T17:13:30.829393</dc:date>
    <dc:format>image/svg+xml</dc:format>
    <dc:creator>
     <cc:Agent>
      <dc:title>Matplotlib v3.11.2, https://matplotlib.org/</dc:title>
     </cc:Agent>
    </dc:creator>
   </cc:Work>
  </rdf:RDF>
 </metadata>
 <defs>
  <style type="text/css">*{stroke-linejoin: round; stroke-linecap: butt}</style>
 </defs>
 <g id="figure_1">
  <g id="patch_1">
   <path d="M 0 424.599375 
L 856.639517 424.599375 
L 856.639517 0 
L 0 0 
z
" style="fill: #ffffff"/>
  </g>
  <g id="axes_1">
   <g id="patch_2">
    <path d="M 56.789844 386.398594 
L 797.0915 386.398594 
L 797.0915 22.318125 
L 56.789844 22.318125 
z
" style="fill: #ffffff"/>
   </g>
   <g id="matplotlib.axis_1">
    <g id="xtick_1">
     <g id="line2d_1">
      <path d="M 78.443281 386.398594 
L 78.443281 22.318125 
" clip-path="url(#p792f77732d)" style="fill: none; stroke: #b0b0b0; stroke-opacity: 0.2; stroke-width: 0.8; stroke-linecap: square"/>
     </g>
     <g id="line2d_2">
      <defs>
       <path id="m9ef2d60bb3" d="M 0 0 
L 0 3.5 
" style="stroke: #000000; stroke-width: 0.8"/>
      </defs>
      <g>
       <use xlink:href="#m9ef2d60bb3" x="78.443281" y="386.398594" style="stroke: #000000; stroke-width: 0.8"/>
      </g>
     </g>
     <g id="text_1">
      <!-- 1996 -->
      <g transform="translate(65.718281 400.99625) scale(0.1 -0.1)">
       <defs>
        <path id="DejaVuSans-14" d="M 794 531 
L 1825 531 
L 1825 4091 
L 703 3866 
L 703 4441 
L 1819 4666 
L 2450 4666 
L 2450 531 
L 3481 531 
L 3481 0 
L 794 0 
L 794 531 
z
" transform="scale(0.015625)"/>
        <path id="DejaVuSans-1c" d="M 703 97 
L 703 672 
Q 941 559 1184 500 
Q 1428 441 1663 441 
Q 2288 441 2617 861 
Q 2947 1281 2994 2138 
Q 2813 1869 2534 1725 
Q 2256 1581 1919 1581 
Q 1219 1581 811 2004 
Q 403 2428 403 3163 
Q 403 3881 828 4315 
Q 1253 4750 1959 4750 
Q 2769 4750 3195 4129 
Q 3622 3509 3622 2328 
Q 3622 1225 3098 567 
Q 2575 -91 1691 -91 
Q 1453 -91 1209 -44 
Q 966 3 703 97 
z
M 1959 2075 
Q 2384 2075 2632 2365 
Q 2881 2656 2881 3163 
Q 2881 3666 2632 3958 
Q 2384 4250 1959 4250 
Q 1534 4250 1286 3958 
Q 1038 3666 1038 3163 
Q 1038 2656 1286 2365 
Q 1534 2075 1959 2075 
z
" transform="scale(0.015625)"/>
        <path id="DejaVuSans-19" d="M 2113 2584 
Q 1688 2584 1439 2293 
Q 1191 2003 1191 1497 
Q 1191 994 1439 701 
Q 1688 409 2113 409 
Q 2538 409 2786 701 
Q 3034 994 3034 1497 
Q 3034 2003 2786 2293 
Q 2538 2584 2113 2584 
z
M 3366 4563 
L 3366 3988 
Q 3128 4100 2886 4159 
Q 2644 4219 2406 4219 
Q 1781 4219 1451 3797 
Q 1122 3375 1075 2522 
Q 1259 2794 1537 2939 
Q 1816 3084 2150 3084 
Q 2853 3084 3261 2657 
Q 3669 2231 3669 1497 
Q 3669 778 3244 343 
Q 2819 -91 2113 -91 
Q 1303 -91 875 529 
Q 447 1150 447 2328 
Q 447 3434 972 4092 
Q 1497 4750 2381 4750 
Q 2619 4750 2861 4703 
Q 3103 4656 3366 4563 
z
" transform="scale(0.015625)"/>
       </defs>
       <use xlink:href="#DejaVuSans-14"/>
       <use xlink:href="#DejaVuSans-1c" transform="translate(63.625 0)"/>
       <use xlink:href="#DejaVuSans-1c" transform="translate(127.25 0)"/>
       <use xlink:href="#DejaVuSans-19" transform="translate(190.875 0)"/>
      </g>
     </g>
    </g>
    <g id="xtick_2">
     <g id="line2d_3">
      <path d="M 150.91884 386.398594 
L 150.91884 22.318125 
" clip-path="url(#p792f77732d)" style="fill: none; stroke: #b0b0b0; stroke-opacity: 0.2; stroke-width: 0.8; stroke-linecap: square"/>
     </g>
     <g id="line2d_4">
      <g>
       <use xlink:href="#m9ef2d60bb3" x="150.91884" y="386.398594" style="stroke: #000000; stroke-width: 0.8"/>
      </g>
     </g>
     <g id="text_2">
      <!-- 1998 -->
      <g transform="translate(138.19384 400.99625) scale(0.1 -0.1)">
       <defs>
        <path id="DejaVuSans-1b" d="M 2034 2216 
Q 1584 2216 1326 1975 
Q 1069 1734 1069 1313 
Q 1069 891 1326 650 
Q 1584 409 2034 409 
Q 2484 409 2743 651 
Q 3003 894 3003 1313 
Q 3003 1734 2745 1975 
Q 2488 2216 2034 2216 
z
M 1403 2484 
Q 997 2584 770 2862 
Q 544 3141 544 3541 
Q 544 4100 942 4425 
Q 1341 4750 2034 4750 
Q 2731 4750 3128 4425 
Q 3525 4100 3525 3541 
Q 3525 3141 3298 2862 
Q 3072 2584 2669 2484 
Q 3125 2378 3379 2068 
Q 3634 1759 3634 1313 
Q 3634 634 3220 271 
Q 2806 -91 2034 -91 
Q 1263 -91 848 271 
Q 434 634 434 1313 
Q 434 1759 690 2068 
Q 947 2378 1403 2484 
z
M 1172 3481 
Q 1172 3119 1398 2916 
Q 1625 2713 2034 2713 
Q 2441 2713 2670 2916 
Q 2900 3119 2900 3481 
Q 2900 3844 2670 4047 
Q 2441 4250 2034 4250 
Q 1625 4250 1398 4047 
Q 1172 3844 1172 3481 
z
" transform="scale(0.015625)"/>
       </defs>
       <use xlink:href="#DejaVuSans-14"/>
       <use xlink:href="#DejaVuSans-1c" transform="translate(63.625 0)"/>
       <use xlink:href="#DejaVuSans-1c" transform="translate(127.25 0)"/>
       <use xlink:href="#DejaVuSans-1b" transform="translate(190.875 0)"/>
      </g>
     </g>
    </g>
    <g id="xtick_3">
     <g id="line2d_5">
      <path d="M 223.295255 386.398594 
L 223.295255 22.318125 
" clip-path="url(#p792f77732d)" style="fill: none; stroke: #b0b0b0; stroke-opacity: 0.2; stroke-width: 0.8; stroke-linecap: square"/>
     </g>
     <g id="line2d_6">
      <g>
       <use xlink:href="#m9ef2d60bb3" x="223.295255" y="386.398594" style="stroke: #000000; stroke-width: 0.8"/>
      </g>
     </g>
     <g id="text_3">
      <!-- 2000 -->
      <g transform="translate(210.570255 400.99625) scale(0.1 -0.1)">
       <defs>
        <path id="DejaVuSans-15" d="M 1228 531 
L 3431 531 
L 3431 0 
L 469 0 
L 469 531 
Q 828 903 1448 1529 
Q 2069 2156 2228 2338 
Q 2531 2678 2651 2914 
Q 2772 3150 2772 3378 
Q 2772 3750 2511 3984 
Q 2250 4219 1831 4219 
Q 1534 4219 1204 4116 
Q 875 4013 500 3803 
L 500 4441 
Q 881 4594 1212 4672 
Q 1544 4750 1819 4750 
Q 2544 4750 2975 4387 
Q 3406 4025 3406 3419 
Q 3406 3131 3298 2873 
Q 3191 2616 2906 2266 
Q 2828 2175 2409 1742 
Q 1991 1309 1228 531 
z
" transform="scale(0.015625)"/>
        <path id="DejaVuSans-13" d="M 2034 4250 
Q 1547 4250 1301 3770 
Q 1056 3291 1056 2328 
Q 1056 1369 1301 889 
Q 1547 409 2034 409 
Q 2525 409 2770 889 
Q 3016 1369 3016 2328 
Q 3016 3291 2770 3770 
Q 2525 4250 2034 4250 
z
M 2034 4750 
Q 2819 4750 3233 4129 
Q 3647 3509 3647 2328 
Q 3647 1150 3233 529 
Q 2819 -91 2034 -91 
Q 1250 -91 836 529 
Q 422 1150 422 2328 
Q 422 3509 836 4129 
Q 1250 4750 2034 4750 
z
" transform="scale(0.015625)"/>
       </defs>
       <use xlink:href="#DejaVuSans-15"/>
       <use xlink:href="#DejaVuSans-13" transform="translate(63.625 0)"/>
       <use xlink:href="#DejaVuSans-13" transform="translate(127.25 0)"/>
       <use xlink:href="#DejaVuSans-13" transform="translate(190.875 0)"/>
      </g>
     </g>
    </g>
    <g id="xtick_4">
     <g id="line2d_7">
      <path d="M 295.770814 386.398594 
L 295.770814 22.318125 
" clip-path="url(#p792f77732d)" style="fill: none; stroke: #b0b0b0; stroke-opacity: 0.2; stroke-width: 0.8; stroke-linecap: square"/>
     </g>
     <g id="line2d_8">
      <g>
       <use xlink:href="#m9ef2d60bb3" x="295.770814" y="386.398594" style="stroke: #000000; stroke-width: 0.8"/>
      </g>
     </g>
     <g id="text_4">
      <!-- 2002 -->
      <g transform="translate(283.045814 400.99625) scale(0.1 -0.1)">
       <use xlink:href="#DejaVuSans-15"/>
       <use xlink:href="#DejaVuSans-13" transform="translate(63.625 0)"/>
       <use xlink:href="#DejaVuSans-13" transform="translate(127.25 0)"/>
       <use xlink:href="#DejaVuSans-15" transform="translate(190.875 0)"/>
      </g>
     </g>
    </g>
    <g id="xtick_5">
     <g id="line2d_9">
      <path d="M 368.147229 386.398594 
L 368.147229 22.318125 
" clip-path="url(#p792f77732d)" style="fill: none; stroke: #b0b0b0; stroke-opacity: 0.2; stroke-width: 0.8; stroke-linecap: square"/>
     </g>
     <g id="line2d_10">
      <g>
       <use xlink:href="#m9ef2d60bb3" x="368.147229" y="386.398594" style="stroke: #000000; stroke-width: 0.8"/>
      </g>
     </g>
     <g id="text_5">
      <!-- 2004 -->
      <g transform="translate(355.422229 400.99625) scale(0.1 -0.1)">
       <defs>
        <path id="DejaVuSans-17" d="M 2419 4116 
L 825 1625 
L 2419 1625 
L 2419 4116 
z
M 2253 4666 
L 3047 4666 
L 3047 1625 
L 3713 1625 
L 3713 1100 
L 3047 1100 
L 3047 0 
L 2419 0 
L 2419 1100 
L 313 1100 
L 313 1709 
L 2253 4666 
z
" transform="scale(0.015625)"/>
       </defs>
       <use xlink:href="#DejaVuSans-15"/>
       <use xlink:href="#DejaVuSans-13" transform="translate(63.625 0)"/>
       <use xlink:href="#DejaVuSans-13" transform="translate(127.25 0)"/>
       <use xlink:href="#DejaVuSans-17" transform="translate(190.875 0)"/>
      </g>
     </g>
    </g>
    <g id="xtick_6">
     <g id="line2d_11">
      <path d="M 440.622789 386.398594 
L 440.622789 22.318125 
" clip-path="url(#p792f77732d)" style="fill: none; stroke: #b0b0b0; stroke-opacity: 0.2; stroke-width: 0.8; stroke-linecap: square"/>
     </g>
     <g id="line2d_12">
      <g>
       <use xlink:href="#m9ef2d60bb3" x="440.622789" y="386.398594" style="stroke: #000000; stroke-width: 0.8"/>
      </g>
     </g>
     <g id="text_6">
      <!-- 2006 -->
      <g transform="translate(427.897789 400.99625) scale(0.1 -0.1)">
       <use xlink:href="#DejaVuSans-15"/>
       <use xlink:href="#DejaVuSans-13" transform="translate(63.625 0)"/>
       <use xlink:href="#DejaVuSans-13" transform="translate(127.25 0)"/>
       <use xlink:href="#DejaVuSans-19" transform="translate(190.875 0)"/>
      </g>
     </g>
    </g>
    <g id="xtick_7">
     <g id="line2d_13">
      <path d="M 512.999203 386.398594 
L 512.999203 22.318125 
" clip-path="url(#p792f77732d)" style="fill: none; stroke: #b0b0b0; stroke-opacity: 0.2; stroke-width: 0.8; stroke-linecap: square"/>
     </g>
     <g id="line2d_14">
      <g>
       <use xlink:href="#m9ef2d60bb3" x="512.999203" y="386.398594" style="stroke: #000000; stroke-width: 0.8"/>
      </g>
     </g>
     <g id="text_7">
      <!-- 2008 -->
      <g transform="translate(500.274203 400.99625) scale(0.1 -0.1)">
       <use xlink:href="#DejaVuSans-15"/>
       <use xlink:href="#DejaVuSans-13" transform="translate(63.625 0)"/>
       <use xlink:href="#DejaVuSans-13" transform="translate(127.25 0)"/>
       <use xlink:href="#DejaVuSans-1b" transform="translate(190.875 0)"/>
      </g>
     </g>
    </g>
    <g id="xtick_8">
     <g id="line2d_15">
      <path d="M 585.474763 386.398594 
L 585.474763 22.318125 
" clip-path="url(#p792f77732d)" style="fill: none; stroke: #b0b0b0; stroke-opacity: 0.2; stroke-width: 0.8; stroke-linecap: square"/>
     </g>
     <g id="line2d_16">
      <g>
       <use xlink:href="#m9ef2d60bb3" x="585.474763" y="386.398594" style="stroke: #000000; stroke-width: 0.8"/>
      </g>
     </g>
     <g id="text_8">
      <!-- 2010 -->
      <g transform="translate(572.749763 400.99625) scale(0.1 -0.1)">
       <use xlink:href="#DejaVuSans-15"/>
       <use xlink:href="#DejaVuSans-13" transform="translate(63.625 0)"/>
       <use xlink:href="#DejaVuSans-14" transform="translate(127.25 0)"/>
       <use xlink:href="#DejaVuSans-13" transform="translate(190.875 0)"/>
      </g>
     </g>
    </g>
    <g id="xtick_9">
     <g id="line2d_17">
      <path d="M 657.851177 386.398594 
L 657.851177 22.318125 
" clip-path="url(#p792f77732d)" style="fill: none; stroke: #b0b0b0; stroke-opacity: 0.2; stroke-width: 0.8; stroke-linecap: square"/>
     </g>
     <g id="line2d_18">
      <g>
       <use xlink:href="#m9ef2d60bb3" x="657.851177" y="386.398594" style="stroke: #000000; stroke-width: 0.8"/>
      </g>
     </g>
     <g id="text_9">
      <!-- 2012 -->
      <g transform="translate(645.126177 400.99625) scale(0.1 -0.1)">
       <use xlink:href="#DejaVuSans-15"/>
       <use xlink:href="#DejaVuSans-13" transform="translate(63.625 0)"/>
       <use xlink:href="#DejaVuSans-14" transform="translate(127.25 0)"/>
       <use xlink:href="#DejaVuSans-15" transform="translate(190.875 0)"/>
      </g>
     </g>
    </g>
    <g id="xtick_10">
     <g id="line2d_19">
      <path d="M 730.326737 386.398594 
L 730.326737 22.318125 
" clip-path="url(#p792f77732d)" style="fill: none; stroke: #b0b0b0; stroke-opacity: 0.2; stroke-width: 0.8; stroke-linecap: square"/>
     </g>
     <g id="line2d_20">
      <g>
       <use xlink:href="#m9ef2d60bb3" x="730.326737" y="386.398594" style="stroke: #000000; stroke-width: 0.8"/>
      </g>
     </g>
     <g id="text_10">
      <!-- 2014 -->
      <g transform="translate(717.601737 400.99625) scale(0.1 -0.1)">
       <use xlink:href="#DejaVuSans-15"/>
       <use xlink:href="#DejaVuSans-13" transform="translate(63.625 0)"/>
       <use xlink:href="#DejaVuSans-14" transform="translate(127.25 0)"/>
       <use xlink:href="#DejaVuSans-17" transform="translate(190.875 0)"/>
      </g>
     </g>
    </g>
    <g id="text_11">
     <!-- Month -->
     <g transform="translate(411.269578 414.997031) scale(0.1 -0.1)">
      <defs>
       <path id="DejaVuSans-30" d="M 628 4666 
L 1569 4666 
L 2759 1491 
L 3956 4666 
L 4897 4666 
L 4897 0 
L 4281 0 
L 4281 4097 
L 3078 897 
L 2444 897 
L 1241 4097 
L 1241 0 
L 628 0 
L 628 4666 
z
" transform="scale(0.015625)"/>
       <path id="DejaVuSans-52" d="M 1959 3097 
Q 1497 3097 1228 2736 
Q 959 2375 959 1747 
Q 959 1119 1226 758 
Q 1494 397 1959 397 
Q 2419 397 2687 759 
Q 2956 1122 2956 1747 
Q 2956 2369 2687 2733 
Q 2419 3097 1959 3097 
z
M 1959 3584 
Q 2709 3584 3137 3096 
Q 3566 2609 3566 1747 
Q 3566 888 3137 398 
Q 2709 -91 1959 -91 
Q 1206 -91 779 398 
Q 353 888 353 1747 
Q 353 2609 779 3096 
Q 1206 3584 1959 3584 
z
" transform="scale(0.015625)"/>
       <path id="DejaVuSans-51" d="M 3513 2113 
L 3513 0 
L 2938 0 
L 2938 2094 
Q 2938 2591 2744 2837 
Q 2550 3084 2163 3084 
Q 1697 3084 1428 2787 
Q 1159 2491 1159 1978 
L 1159 0 
L 581 0 
L 581 3500 
L 1159 3500 
L 1159 2956 
Q 1366 3272 1645 3428 
Q 1925 3584 2291 3584 
Q 2894 3584 3203 3211 
Q 3513 2838 3513 2113 
z
" transform="scale(0.015625)"/>
       <path id="DejaVuSans-57" d="M 1172 4494 
L 1172 3500 
L 2356 3500 
L 2356 3053 
L 1172 3053 
L 1172 1153 
Q 1172 725 1289 603 
Q 1406 481 1766 481 
L 2356 481 
L 2356 0 
L 1766 0 
Q 1100 0 847 248 
Q 594 497 594 1153 
L 594 3053 
L 172 3053 
L 172 3500 
L 594 3500 
L 594 4494 
L 1172 4494 
z
" transform="scale(0.015625)"/>
       <path id="DejaVuSans-4b" d="M 3513 2113 
L 3513 0 
L 2938 0 
L 2938 2094 
Q 2938 2591 2744 2837 
Q 2550 3084 2163 3084 
Q 1697 3084 1428 2787 
Q 1159 2491 1159 1978 
L 1159 0 
L 581 0 
L 581 4863 
L 1159 4863 
L 1159 2956 
Q 1366 3272 1645 3428 
Q 1925 3584 2291 3584 
Q 2894 3584 3203 3211 
Q 3513 2838 3513 2113 
z
" transform="scale(0.015625)"/>
      </defs>
      <use xlink:href="#DejaVuSans-30"/>
      <use xlink:href="#DejaVuSans-52" transform="translate(86.28125 0)"/>
      <use xlink:href="#DejaVuSans-51" transform="translate(147.46875 0)"/>
      <use xlink:href="#DejaVuSans-57" transform="translate(210.84375 0)"/>
      <use xlink:href="#DejaVuSans-4b" transform="translate(250.046875 0)"/>
     </g>
    </g>
   </g>
   <g id="matplotlib.axis_2">
    <g id="ytick_1">
     <g id="line2d_21">
      <path d="M 56.789844 364.077265 
L 797.0915 364.077265 
" clip-path="url(#p792f77732d)" style="fill: none; stroke: #b0b0b0; stroke-opacity: 0.2; stroke-width: 0.8; stroke-linecap: square"/>
     </g>
     <g id="line2d_22">
      <defs>
       <path id="m954655fca1" d="M 0 0 
L -3.5 0 
" style="stroke: #000000; stroke-width: 0.8"/>
      </defs>
      <g>
       <use xlink:href="#m954655fca1" x="56.789844" y="364.077265" style="stroke: #000000; stroke-width: 0.8"/>
      </g>
     </g>
     <g id="text_12">
      <!-- 0% -->
      <g transform="translate(33.925781 367.876093) scale(0.1 -0.1)">
       <defs>
        <path id="DejaVuSans-8" d="M 4653 2053 
Q 4381 2053 4226 1822 
Q 4072 1591 4072 1178 
Q 4072 772 4226 539 
Q 4381 306 4653 306 
Q 4919 306 5073 539 
Q 5228 772 5228 1178 
Q 5228 1588 5073 1820 
Q 4919 2053 4653 2053 
z
M 4653 2450 
Q 5147 2450 5437 2106 
Q 5728 1763 5728 1178 
Q 5728 594 5436 251 
Q 5144 -91 4653 -91 
Q 4153 -91 3862 251 
Q 3572 594 3572 1178 
Q 3572 1766 3864 2108 
Q 4156 2450 4653 2450 
z
M 1428 4353 
Q 1159 4353 1004 4120 
Q 850 3888 850 3481 
Q 850 3069 1003 2837 
Q 1156 2606 1428 2606 
Q 1700 2606 1854 2837 
Q 2009 3069 2009 3481 
Q 2009 3884 1853 4118 
Q 1697 4353 1428 4353 
z
M 4250 4750 
L 4750 4750 
L 1831 -91 
L 1331 -91 
L 4250 4750 
z
M 1428 4750 
Q 1922 4750 2215 4408 
Q 2509 4066 2509 3481 
Q 2509 2891 2217 2550 
Q 1925 2209 1428 2209 
Q 931 2209 642 2551 
Q 353 2894 353 3481 
Q 353 4063 643 4406 
Q 934 4750 1428 4750 
z
" transform="scale(0.015625)"/>
       </defs>
       <use xlink:href="#DejaVuSans-13"/>
       <use xlink:href="#DejaVuSans-8" transform="translate(63.625 0)"/>
      </g>
     </g>
    </g>
    <g id="ytick_2">
     <g id="line2d_23">
      <path d="M 56.789844 290.697216 
L 797.0915 290.697216 
" clip-path="url(#p792f77732d)" style="fill: none; stroke: #b0b0b0; stroke-opacity: 0.2; stroke-width: 0.8; stroke-linecap: square"/>
     </g>
     <g id="line2d_24">
      <g>
       <use xlink:href="#m954655fca1" x="56.789844" y="290.697216" style="stroke: #000000; stroke-width: 0.8"/>
      </g>
     </g>
     <g id="text_13">
      <!-- 100% -->
      <g transform="translate(21.200781 294.496045) scale(0.1 -0.1)">
       <use xlink:href="#DejaVuSans-14"/>
       <use xlink:href="#DejaVuSans-13" transform="translate(63.625 0)"/>
       <use xlink:href="#DejaVuSans-13" transform="translate(127.25 0)"/>
       <use xlink:href="#DejaVuSans-8" transform="translate(190.875 0)"/>
      </g>
     </g>
    </g>
    <g id="ytick_3">
     <g id="line2d_25">
      <path d="M 56.789844 217.317168 
L 797.0915 217.317168 
" clip-path="url(#p792f77732d)" style="fill: none; stroke: #b0b0b0; stroke-opacity: 0.2; stroke-width: 0.8; stroke-linecap: square"/>
     </g>
     <g id="line2d_26">
      <g>
       <use xlink:href="#m954655fca1" x="56.789844" y="217.317168" style="stroke: #000000; stroke-width: 0.8"/>
      </g>
     </g>
     <g id="text_14">
      <!-- 200% -->
      <g transform="translate(21.200781 221.115996) scale(0.1 -0.1)">
       <use xlink:href="#DejaVuSans-15"/>
       <use xlink:href="#DejaVuSans-13" transform="translate(63.625 0)"/>
       <use xlink:href="#DejaVuSans-13" transform="translate(127.25 0)"/>
       <use xlink:href="#DejaVuSans-8" transform="translate(190.875 0)"/>
      </g>
     </g>
    </g>
    <g id="ytick_4">
     <g id="line2d_27">
      <path d="M 56.789844 143.93712 
L 797.0915 143.93712 
" clip-path="url(#p792f77732d)" style="fill: none; stroke: #b0b0b0; stroke-opacity: 0.2; stroke-width: 0.8; stroke-linecap: square"/>
     </g>
     <g id="line2d_28">
      <g>
       <use xlink:href="#m954655fca1" x="56.789844" y="143.93712" style="stroke: #000000; stroke-width: 0.8"/>
      </g>
     </g>
     <g id="text_15">
      <!-- 300% -->
      <g transform="translate(21.200781 147.735948) scale(0.1 -0.1)">
       <defs>
        <path id="DejaVuSans-16" d="M 2597 2516 
Q 3050 2419 3304 2112 
Q 3559 1806 3559 1356 
Q 3559 666 3084 287 
Q 2609 -91 1734 -91 
Q 1441 -91 1130 -33 
Q 819 25 488 141 
L 488 750 
Q 750 597 1062 519 
Q 1375 441 1716 441 
Q 2309 441 2620 675 
Q 2931 909 2931 1356 
Q 2931 1769 2642 2001 
Q 2353 2234 1838 2234 
L 1294 2234 
L 1294 2753 
L 1863 2753 
Q 2328 2753 2575 2939 
Q 2822 3125 2822 3475 
Q 2822 3834 2567 4026 
Q 2313 4219 1838 4219 
Q 1578 4219 1281 4162 
Q 984 4106 628 3988 
L 628 4550 
Q 988 4650 1302 4700 
Q 1616 4750 1894 4750 
Q 2613 4750 3031 4423 
Q 3450 4097 3450 3541 
Q 3450 3153 3228 2886 
Q 3006 2619 2597 2516 
z
" transform="scale(0.015625)"/>
       </defs>
       <use xlink:href="#DejaVuSans-16"/>
       <use xlink:href="#DejaVuSans-13" transform="translate(63.625 0)"/>
       <use xlink:href="#DejaVuSans-13" transform="translate(127.25 0)"/>
       <use xlink:href="#DejaVuSans-8" transform="translate(190.875 0)"/>
      </g>
     </g>
    </g>
    <g id="ytick_5">
     <g id="line2d_29">
      <path d="M 56.789844 70.557072 
L 797.0915 70.557072 
" clip-path="url(#p792f77732d)" style="fill: none; stroke: #b0b0b0; stroke-opacity: 0.2; stroke-width: 0.8; stroke-linecap: square"/>
     </g>
     <g id="line2d_30">
      <g>
       <use xlink:href="#m954655fca1" x="56.789844" y="70.557072" style="stroke: #000000; stroke-width: 0.8"/>
      </g>
     </g>
     <g id="text_16">
      <!-- 400% -->
      <g transform="translate(21.200781 74.3559) scale(0.1 -0.1)">
       <use xlink:href="#DejaVuSans-17"/>
       <use xlink:href="#DejaVuSans-13" transform="translate(63.625 0)"/>
       <use xlink:href="#DejaVuSans-13" transform="translate(127.25 0)"/>
       <use xlink:href="#DejaVuSans-8" transform="translate(190.875 0)"/>
      </g>
     </g>
    </g>
    <g id="text_17">
     <!-- Cumulative return -->
     <g transform="translate(14.798437 249.772422) rotate(-90) scale(0.1 -0.1)">
      <defs>
       <path id="DejaVuSans-26" d="M 4122 4306 
L 4122 3641 
Q 3803 3938 3442 4084 
Q 3081 4231 2675 4231 
Q 1875 4231 1450 3742 
Q 1025 3253 1025 2328 
Q 1025 1406 1450 917 
Q 1875 428 2675 428 
Q 3081 428 3442 575 
Q 3803 722 4122 1019 
L 4122 359 
Q 3791 134 3420 21 
Q 3050 -91 2638 -91 
Q 1578 -91 968 557 
Q 359 1206 359 2328 
Q 359 3453 968 4101 
Q 1578 4750 2638 4750 
Q 3056 4750 3426 4639 
Q 3797 4528 4122 4306 
z
" transform="scale(0.015625)"/>
       <path id="DejaVuSans-58" d="M 544 1381 
L 544 3500 
L 1119 3500 
L 1119 1403 
Q 1119 906 1312 657 
Q 1506 409 1894 409 
Q 2359 409 2629 706 
Q 2900 1003 2900 1516 
L 2900 3500 
L 3475 3500 
L 3475 0 
L 2900 0 
L 2900 538 
Q 2691 219 2414 64 
Q 2138 -91 1772 -91 
Q 1169 -91 856 284 
Q 544 659 544 1381 
z
M 1991 3584 
L 1991 3584 
z
" transform="scale(0.015625)"/>
       <path id="DejaVuSans-50" d="M 3328 2828 
Q 3544 3216 3844 3400 
Q 4144 3584 4550 3584 
Q 5097 3584 5394 3201 
Q 5691 2819 5691 2113 
L 5691 0 
L 5113 0 
L 5113 2094 
Q 5113 2597 4934 2840 
Q 4756 3084 4391 3084 
Q 3944 3084 3684 2787 
Q 3425 2491 3425 1978 
L 3425 0 
L 2847 0 
L 2847 2094 
Q 2847 2600 2669 2842 
Q 2491 3084 2119 3084 
Q 1678 3084 1418 2786 
Q 1159 2488 1159 1978 
L 1159 0 
L 581 0 
L 581 3500 
L 1159 3500 
L 1159 2956 
Q 1356 3278 1631 3431 
Q 1906 3584 2284 3584 
Q 2666 3584 2933 3390 
Q 3200 3197 3328 2828 
z
" transform="scale(0.015625)"/>
       <path id="DejaVuSans-4f" d="M 603 4863 
L 1178 4863 
L 1178 0 
L 603 0 
L 603 4863 
z
" transform="scale(0.015625)"/>
       <path id="DejaVuSans-44" d="M 2194 1759 
Q 1497 1759 1228 1600 
Q 959 1441 959 1056 
Q 959 750 1161 570 
Q 1363 391 1709 391 
Q 2188 391 2477 730 
Q 2766 1069 2766 1631 
L 2766 1759 
L 2194 1759 
z
M 3341 1997 
L 3341 0 
L 2766 0 
L 2766 531 
Q 2569 213 2275 61 
Q 1981 -91 1556 -91 
Q 1019 -91 701 211 
Q 384 513 384 1019 
Q 384 1609 779 1909 
Q 1175 2209 1959 2209 
L 2766 2209 
L 2766 2266 
Q 2766 2663 2505 2880 
Q 2244 3097 1772 3097 
Q 1472 3097 1187 3025 
Q 903 2953 641 2809 
L 641 3341 
Q 956 3463 1253 3523 
Q 1550 3584 1831 3584 
Q 2591 3584 2966 3190 
Q 3341 2797 3341 1997 
z
" transform="scale(0.015625)"/>
       <path id="DejaVuSans-4c" d="M 603 3500 
L 1178 3500 
L 1178 0 
L 603 0 
L 603 3500 
z
M 603 4863 
L 1178 4863 
L 1178 4134 
L 603 4134 
L 603 4863 
z
" transform="scale(0.015625)"/>
       <path id="DejaVuSans-59" d="M 191 3500 
L 800 3500 
L 1894 563 
L 2988 3500 
L 3597 3500 
L 2284 0 
L 1503 0 
L 191 3500 
z
" transform="scale(0.015625)"/>
       <path id="DejaVuSans-48" d="M 3597 1894 
L 3597 1613 
L 953 1613 
Q 991 1019 1311 708 
Q 1631 397 2203 397 
Q 2534 397 2845 478 
Q 3156 559 3463 722 
L 3463 178 
Q 3153 47 2828 -22 
Q 2503 -91 2169 -91 
Q 1331 -91 842 396 
Q 353 884 353 1716 
Q 353 2575 817 3079 
Q 1281 3584 2069 3584 
Q 2775 3584 3186 3129 
Q 3597 2675 3597 1894 
z
M 3022 2063 
Q 3016 2534 2758 2815 
Q 2500 3097 2075 3097 
Q 1594 3097 1305 2825 
Q 1016 2553 972 2059 
L 3022 2063 
z
" transform="scale(0.015625)"/>
       <path id="DejaVuSans-3" transform="scale(0.015625)"/>
       <path id="DejaVuSans-55" d="M 2631 2963 
Q 2534 3019 2420 3045 
Q 2306 3072 2169 3072 
Q 1681 3072 1420 2755 
Q 1159 2438 1159 1844 
L 1159 0 
L 581 0 
L 581 3500 
L 1159 3500 
L 1159 2956 
Q 1341 3275 1631 3429 
Q 1922 3584 2338 3584 
Q 2397 3584 2469 3576 
Q 2541 3569 2628 3553 
L 2631 2963 
z
" transform="scale(0.015625)"/>
      </defs>
      <use xlink:href="#DejaVuSans-26"/>
      <use xlink:href="#DejaVuSans-58" transform="translate(69.828125 0)"/>
      <use xlink:href="#DejaVuSans-50" transform="translate(133.203125 0)"/>
      <use xlink:href="#DejaVuSans-58" transform="translate(230.609375 0)"/>
      <use xlink:href="#DejaVuSans-4f" transform="translate(293.984375 0)"/>
      <use xlink:href="#DejaVuSans-44" transform="translate(321.765625 0)"/>
      <use xlink:href="#DejaVuSans-57" transform="translate(383.046875 0)"/>
      <use xlink:href="#DejaVuSans-4c" transform="translate(422.25 0)"/>
      <use xlink:href="#DejaVuSans-59" transform="translate(450.03125 0)"/>
      <use xlink:href="#DejaVuSans-48" transform="translate(509.21875 0)"/>
      <use xlink:href="#DejaVuSans-3" transform="translate(570.75 0)"/>
      <use xlink:href="#DejaVuSans-55" transform="translate(602.53125 0)"/>
      <use xlink:href="#DejaVuSans-48" transform="translate(641.4375 0)"/>
      <use xlink:href="#DejaVuSans-57" transform="translate(702.96875 0)"/>
      <use xlink:href="#DejaVuSans-58" transform="translate(742.171875 0)"/>
      <use xlink:href="#DejaVuSans-55" transform="translate(805.546875 0)"/>
      <use xlink:href="#DejaVuSans-51" transform="translate(844.90625 0)"/>
     </g>
    </g>
   </g>
   <g id="line2d_31">
    <path d="M 90.439919 361.663921 
L 93.513438 363.252153 
L 96.487811 368.126581 
L 99.56133 365.374784 
L 102.634849 357.777774 
L 105.609222 356.107601 
L 108.682741 347.794497 
L 111.657114 349.843024 
L 114.730633 339.467142 
L 117.804152 347.716831 
L 120.580234 353.523962 
L 123.653753 345.658327 
L 126.628126 336.951906 
L 129.701645 337.853971 
L 132.676018 322.601523 
L 135.749537 326.080102 
L 138.823056 324.687103 
L 141.797429 332.591926 
L 144.870948 330.35529 
L 147.845321 336.950481 
L 150.91884 329.207402 
L 153.992359 317.340191 
L 156.768441 315.137757 
L 159.84196 313.052177 
L 162.816333 319.412945 
L 165.889852 305.381064 
L 168.864225 302.844452 
L 171.937744 327.426073 
L 175.011263 306.320893 
L 177.985636 301.289708 
L 181.059155 287.353306 
L 187.107048 234.086595 
L 190.180566 253.91492 
L 192.956648 237.568024 
L 196.030167 234.745687 
L 199.00454 241.354416 
L 202.078059 220.723781 
L 205.052432 225.436464 
L 208.125951 214.586748 
L 211.19947 213.158122 
L 214.173843 193.336211 
L 217.247362 164.039769 
L 220.221736 96.92501 
L 223.295255 109.778364 
L 226.368774 47.32641 
L 229.244001 38.867237 
L 232.31752 96.755427 
L 235.291893 140.12579 
L 238.365412 101.433909 
L 241.339785 119.04056 
L 244.413304 77.048233 
L 247.486823 123.882211 
L 250.461196 151.680912 
L 253.534715 218.361739 
L 256.509088 235.430429 
L 259.582607 215.308542 
L 262.656126 274.695898 
L 265.432208 303.889736 
L 268.505727 280.662636 
L 271.4801 285.997359 
L 274.553619 284.015809 
L 277.527992 296.771547 
L 280.601511 315.094292 
L 283.67503 340.629281 
L 286.649403 324.642213 
L 289.722922 305.770819 
L 292.697296 307.51082 
L 295.770814 309.972616 
L 298.844333 325.810765 
L 301.620415 318.326335 
L 304.693934 332.978118 
L 307.668307 338.732522 
L 310.741826 351.807473 
L 313.716199 359.080282 
L 316.789718 360.786794 
L 319.863237 369.849482 
L 322.83761 357.226275 
L 325.911129 347.071277 
L 328.885503 357.821239 
L 331.959022 358.022885 
L 335.032541 355.925193 
L 337.808622 355.288902 
L 340.882141 348.287568 
L 343.856514 340.96417 
L 346.930033 340.757536 
L 349.904406 334.776548 
L 352.977925 329.718287 
L 356.051444 332.84345 
L 359.025818 323.871967 
L 362.099336 323.311204 
L 365.07371 319.922405 
L 368.147229 318.004983 
L 371.220748 319.882503 
L 374.095975 322.523145 
L 377.169494 325.59273 
L 380.143867 320.490293 
L 383.217386 316.512942 
L 386.191759 325.93617 
L 389.265278 328.519809 
L 392.338797 325.149536 
L 395.31317 319.40582 
L 398.386689 312.829867 
L 401.361062 309.113303 
L 404.434581 317.348742 
L 407.5081 318.215892 
L 410.284182 320.716165 
L 413.357701 325.844254 
L 416.332074 316.488004 
L 419.405593 320.654175 
L 422.379966 312.222078 
L 425.453485 314.35896 
L 428.527004 313.039352 
L 431.501377 315.159133 
L 434.574896 308.337357 
L 437.54927 310.836204 
L 440.622789 306.219001 
L 443.696307 309.653402 
L 446.472389 307.621975 
L 449.545908 308.30173 
L 452.520281 317.963656 
L 455.5938 318.746728 
L 458.568173 324.172655 
L 461.641692 319.380881 
L 464.715211 314.248517 
L 467.689584 308.977922 
L 470.763103 305.143791 
L 473.737477 308.179175 
L 476.810996 306.176249 
L 479.884515 308.871043 
L 482.660596 308.552541 
L 485.734115 302.18251 
L 488.708488 298.366905 
L 491.782007 298.473072 
L 494.75638 299.201279 
L 497.829899 295.71985 
L 500.903418 289.01208 
L 503.877792 279.286738 
L 506.951311 290.381565 
L 509.925684 291.136848 
L 512.999203 309.003574 
L 516.072722 315.920829 
L 518.947949 313.501784 
L 522.021468 304.310842 
L 524.995841 296.557787 
L 528.06936 310.253354 
L 531.043733 309.719668 
L 534.117252 308.254703 
L 537.190771 328.026025 
L 540.165144 345.683978 
L 543.238663 356.049173 
L 546.213037 354.366174 
L 549.286555 356.644849 
L 552.360074 360.910775 
L 555.136156 352.559194 
L 558.209675 341.85626 
L 564.257567 336.094731 
L 567.23194 327.460275 
L 570.305459 325.881305 
L 573.378978 319.388006 
L 576.353351 322.962777 
L 579.42687 315.950755 
L 582.401244 309.535122 
L 585.474763 317.75916 
L 588.548282 312.305444 
L 591.324363 302.684132 
L 594.397882 299.737815 
L 597.372255 309.833673 
L 600.445774 317.571764 
L 603.420147 309.001436 
L 606.493666 315.60589 
L 609.567185 299.625948 
L 612.541559 290.888887 
L 615.615077 291.233753 
L 618.589451 284.291559 
L 621.66297 279.868164 
L 624.736489 274.978061 
L 627.51257 275.822411 
L 630.586089 271.360539 
L 633.560462 273.366315 
L 636.633981 276.609758 
L 639.608355 273.958428 
L 642.681873 282.171065 
L 645.755392 289.200188 
L 648.729766 273.815922 
L 651.803285 278.052634 
L 654.777658 279.221185 
L 657.851177 266.020116 
L 660.924696 254.975879 
L 663.799923 245.683757 
L 666.873442 247.879778 
L 669.847815 261.491979 
L 672.921334 255.084896 
L 675.895707 253.215926 
L 678.969226 243.816212 
L 682.042745 241.876701 
L 685.017118 252.489857 
L 688.090637 250.020223 
L 691.065011 251.089732 
L 694.13853 246.193929 
L 697.212048 245.281889 
L 699.98813 239.856675 
L 703.061649 235.006473 
L 706.036022 227.959538 
L 709.109541 233.12824 
L 712.083914 220.327614 
L 715.157433 220.996681 
L 718.230952 210.972789 
L 721.205326 199.679878 
L 724.278844 191.316897 
L 727.253218 184.158806 
L 730.326737 189.088811 
L 733.400256 176.278209 
L 736.176337 183.502565 
L 739.249856 184.423155 
L 742.224229 172.933586 
L 745.297748 165.0138 
L 748.272121 161.875099 
L 751.34564 147.881694 
L 754.419159 149.997912 
L 757.393533 142.482131 
L 760.467052 129.138555 
L 763.441425 136.298071 
L 763.441425 136.298071 
" clip-path="url(#p792f77732d)" style="fill: none; stroke: #1f77b4; stroke-width: 1.2; stroke-linecap: square"/>
   </g>
   <g id="patch_3">
    <path d="M 56.789844 386.398594 
L 56.789844 22.318125 
" style="fill: none; stroke: #000000; stroke-width: 0.8; stroke-linejoin: miter; stroke-linecap: square"/>
   </g>
   <g id="patch_4">
    <path d="M 56.789844 386.398594 
L 797.0915 386.398594 
" style="fill: none; stroke: #000000; stroke-width: 0.8; stroke-linejoin: miter; stroke-linecap: square"/>
   </g>
   <g id="text_18">
    <!-- ND: cumulative price return -->
    <g transform="translate(343.457234 16.318125) scale(0.12 -0.12)">
     <defs>
      <path id="DejaVuSans-31" d="M 628 4666 
L 1478 4666 
L 3547 763 
L 3547 4666 
L 4159 4666 
L 4159 0 
L 3309 0 
L 1241 3903 
L 1241 0 
L 628 0 
L 628 4666 
z
" transform="scale(0.015625)"/>
      <path id="DejaVuSans-27" d="M 1259 4147 
L 1259 519 
L 2022 519 
Q 2988 519 3436 956 
Q 3884 1394 3884 2338 
Q 3884 3275 3436 3711 
Q 2988 4147 2022 4147 
L 1259 4147 
z
M 628 4666 
L 1925 4666 
Q 3281 4666 3915 4102 
Q 4550 3538 4550 2338 
Q 4550 1131 3912 565 
Q 3275 0 1925 0 
L 628 0 
L 628 4666 
z
" transform="scale(0.015625)"/>
      <path id="DejaVuSans-1d" d="M 750 794 
L 1409 794 
L 1409 0 
L 750 0 
L 750 794 
z
M 750 3309 
L 1409 3309 
L 1409 2516 
L 750 2516 
L 750 3309 
z
" transform="scale(0.015625)"/>
      <path id="DejaVuSans-46" d="M 3122 3366 
L 3122 2828 
Q 2878 2963 2633 3030 
Q 2388 3097 2138 3097 
Q 1578 3097 1268 2742 
Q 959 2388 959 1747 
Q 959 1106 1268 751 
Q 1578 397 2138 397 
Q 2388 397 2633 464 
Q 2878 531 3122 666 
L 3122 134 
Q 2881 22 2623 -34 
Q 2366 -91 2075 -91 
Q 1284 -91 818 406 
Q 353 903 353 1747 
Q 353 2603 823 3093 
Q 1294 3584 2113 3584 
Q 2378 3584 2631 3529 
Q 2884 3475 3122 3366 
z
" transform="scale(0.015625)"/>
      <path id="DejaVuSans-53" d="M 1159 525 
L 1159 -1331 
L 581 -1331 
L 581 3500 
L 1159 3500 
L 1159 2969 
Q 1341 3281 1617 3432 
Q 1894 3584 2278 3584 
Q 2916 3584 3314 3078 
Q 3713 2572 3713 1747 
Q 3713 922 3314 415 
Q 2916 -91 2278 -91 
Q 1894 -91 1617 61 
Q 1341 213 1159 525 
z
M 3116 1747 
Q 3116 2381 2855 2742 
Q 2594 3103 2138 3103 
Q 1681 3103 1420 2742 
Q 1159 2381 1159 1747 
Q 1159 1113 1420 752 
Q 1681 391 2138 391 
Q 2594 391 2855 752 
Q 3116 1113 3116 1747 
z
" transform="scale(0.015625)"/>
     </defs>
     <use xlink:href="#DejaVuSans-31"/>
     <use xlink:href="#DejaVuSans-27" transform="translate(74.8125 0)"/>
     <use xlink:href="#DejaVuSans-1d" transform="translate(151.8125 0)"/>
     <use xlink:href="#DejaVuSans-3" transform="translate(185.5 0)"/>
     <use xlink:href="#DejaVuSans-46" transform="translate(217.28125 0)"/>
     <use xlink:href="#DejaVuSans-58" transform="translate(272.265625 0)"/>
     <use xlink:href="#DejaVuSans-50" transform="translate(335.640625 0)"/>
     <use xlink:href="#DejaVuSans-58" transform="translate(433.046875 0)"/>
     <use xlink:href="#DejaVuSans-4f" transform="translate(496.421875 0)"/>
     <use xlink:href="#DejaVuSans-44" transform="translate(524.203125 0)"/>
     <use xlink:href="#DejaVuSans-57" transform="translate(585.484375 0)"/>
     <use xlink:href="#DejaVuSans-4c" transform="translate(624.6875 0)"/>
     <use xlink:href="#DejaVuSans-59" transform="translate(652.46875 0)"/>
     <use xlink:href="#DejaVuSans-48" transform="translate(711.65625 0)"/>
     <use xlink:href="#DejaVuSans-3" transform="translate(773.1875 0)"/>
     <use xlink:href="#DejaVuSans-53" transform="translate(804.96875 0)"/>
     <use xlink:href="#DejaVuSans-55" transform="translate(868.453125 0)"/>
     <use xlink:href="#DejaVuSans-4c" transform="translate(909.5625 0)"/>
     <use xlink:href="#DejaVuSans-46" transform="translate(937.34375 0)"/>
     <use xlink:href="#DejaVuSans-48" transform="translate(992.328125 0)"/>
     <use xlink:href="#DejaVuSans-3" transform="translate(1053.859375 0)"/>
     <use xlink:href="#DejaVuSans-55" transform="translate(1085.640625 0)"/>
     <use xlink:href="#DejaVuSans-48" transform="translate(1124.546875 0)"/>
     <use xlink:href="#DejaVuSans-57" transform="translate(1186.078125 0)"/>
     <use xlink:href="#DejaVuSans-58" transform="translate(1225.28125 0)"/>
     <use xlink:href="#DejaVuSans-55" transform="translate(1288.65625 0)"/>
     <use xlink:href="#DejaVuSans-51" transform="translate(1328.015625 0)"/>
    </g>
   </g>
   <g id="legend_1">
    <g id="patch_5">
     <path d="M 810.094517 40.71875 
L 847.839517 40.71875 
Q 849.439517 40.71875 849.439517 39.11875 
L 849.439517 27.918125 
Q 849.439517 26.318125 847.839517 26.318125 
L 810.094517 26.318125 
Q 808.494517 26.318125 808.494517 27.918125 
L 808.494517 39.11875 
Q 808.494517 40.71875 810.094517 40.71875 
z
" style="fill: #ffffff; opacity: 0.8; stroke: #cccccc; stroke-linejoin: miter"/>
    </g>
    <g id="line2d_32">
     <path d="M 811.694517 32.796875 
L 819.694517 32.796875 
L 827.694517 32.796875 
" style="fill: none; stroke: #1f77b4; stroke-width: 1.2; stroke-linecap: square"/>
    </g>
    <g id="text_19">
     <!-- ND -->
     <g transform="translate(834.094517 35.596875) scale(0.08 -0.08)">
      <use xlink:href="#DejaVuSans-31"/>
      <use xlink:href="#DejaVuSans-27" transform="translate(74.8125 0)"/>
     </g>
    </g>
   </g>
  </g>
 </g>
 <defs>
  <clipPath id="p792f77732d">
   <rect x="56.789844" y="22.318125" width="740.301656" height="364.080469"/>
  </clipPath>
 </defs>
</svg>
