<?xml version="1.0" encoding="utf-8" standalone="no"?>
<!DOCTYPE svg PUBLIC "-//W3C//DTD SVG 1.1//EN"
  "http://www.w3.org/Graphics/SVG/1.1/DTD/svg11.dtd">
<svg xmlns:xlink="http://www.w3.org/1999/xlink" width="856.674704pt" height="424.599375pt" viewBox="0 0 856.674704 424.599375" xmlns="http://www.w3.org/2000/svg" version="1.1">
 <metadata>
  <rdf:RDF xmlns:dc="http://purl.org/dc/elements/1.1/" xmlns:cc="http://creativecommons.org/ns#" xmlns:rdf="http://www.w3.org/1999/02/22-rdf-syntax-ns#">
   <cc:Work>
    <dc:type rdf:resource="http://purl.org/dc/dcmitype/StillImage"/>
    <dc:date>2026-10-06T17:27:10.727687</dc:date>
    <dc:format>image/svg+xml</dc:format>
    <dc:creator>
     <cc:Agent>
      <dc:title>Matplotlib v3.11.2, https://matplotlib.org/</dc:title>
     </cc:Agent>
    </dc:creator>
   </cc:Work>
  </rdf:RDF>
 </metadata>
 <defs>
  <style type="text/css">*{stroke-linejoin: round; stroke-linecap: butt}</style>
 </defs>
 <g id="figure_1">
  <g id="patch_1">
   <path d="M 0 424.599375 
L 856.674704 424.599375 
L 856.674704 0 
L 0 0 
z
" style="fill: #ffffff"/>
  </g>
  <g id="axes_1">
   <g id="patch_2">
    <path d="M 58.807031 386.398594 
L 800.908687 386.398594 
L 800.908687 22.318125 
L 58.807031 22.318125 
z
" style="fill: #ffffff"/>
   </g>
   <g id="matplotlib.axis_1">
    <g id="xtick_1">
     <g id="line2d_1">
      <path d="M 127.594818 386.398594 
L 127.594818 22.318125 
" clip-path="url(#pd6f857444e)" style="fill: none; stroke: #b0b0b0; stroke-opacity: 0.2; stroke-width: 0.8; stroke-linecap: square"/>
     </g>
     <g id="line2d_2">
      <defs>
       <path id="m4067686995" d="M 0 0 
L 0 3.5 
" style="stroke: #000000; stroke-width: 0.8"/>
      </defs>
      <g>
       <use xlink:href="#m4067686995" x="127.594818" y="386.398594" style="stroke: #000000; stroke-width: 0.8"/>
      </g>
     </g>
     <g id="text_1">
      <!-- 1980 -->
      <g transform="translate(114.869818 400.99625) scale(0.1 -0.1)">
       <defs>
        <path id="DejaVuSans-14" d="M 794 531 
L 1825 531 
L 1825 4091 
L 703 3866 
L 703 4441 
L 1819 4666 
L 2450 4666 
L 2450 531 
L 3481 531 
L 3481 0 
L 794 0 
L 794 531 
z
" transform="scale(0.015625)"/>
        <path id="DejaVuSans-1c" d="M 703 97 
L 703 672 
Q 941 559 1184 500 
Q 1428 441 1663 441 
Q 2288 441 2617 861 
Q 2947 1281 2994 2138 
Q 2813 1869 2534 1725 
Q 2256 1581 1919 1581 
Q 1219 1581 811 2004 
Q 403 2428 403 3163 
Q 403 3881 828 4315 
Q 1253 4750 1959 4750 
Q 2769 4750 3195 4129 
Q 3622 3509 3622 2328 
Q 3622 1225 3098 567 
Q 2575 -91 1691 -91 
Q 1453 -91 1209 -44 
Q 966 3 703 97 
z
M 1959 2075 
Q 2384 2075 2632 2365 
Q 2881 2656 2881 3163 
Q 2881 3666 2632 3958 
Q 2384 4250 1959 4250 
Q 1534 4250 1286 3958 
Q 1038 3666 1038 3163 
Q 1038 2656 1286 2365 
Q 1534 2075 1959 2075 
z
" transform="scale(0.015625)"/>
        <path id="DejaVuSans-1b" d="M 2034 2216 
Q 1584 2216 1326 1975 
Q 1069 1734 1069 1313 
Q 1069 891 1326 650 
Q 1584 409 2034 409 
Q 2484 409 2743 651 
Q 3003 894 3003 1313 
Q 3003 1734 2745 1975 
Q 2488 2216 2034 2216 
z
M 1403 2484 
Q 997 2584 770 2862 
Q 544 3141 544 3541 
Q 544 4100 942 4425 
Q 1341 4750 2034 4750 
Q 2731 4750 3128 4425 
Q 3525 4100 3525 3541 
Q 3525 3141 3298 2862 
Q 3072 2584 2669 2484 
Q 3125 2378 3379 2068 
Q 3634 1759 3634 1313 
Q 3634 634 3220 271 
Q 2806 -91 2034 -91 
Q 1263 -91 848 271 
Q 434 634 434 1313 
Q 434 1759 690 2068 
Q 947 2378 1403 2484 
z
M 1172 3481 
Q 1172 3119 1398 2916 
Q 1625 2713 2034 2713 
Q 2441 2713 2670 2916 
Q 2900 3119 2900 3481 
Q 2900 3844 2670 4047 
Q 2441 4250 2034 4250 
Q 1625 4250 1398 4047 
Q 1172 3844 1172 3481 
z
" transform="scale(0.015625)"/>
        <path id="DejaVuSans-13" d="M 2034 4250 
Q 1547 4250 1301 3770 
Q 1056 3291 1056 2328 
Q 1056 1369 1301 889 
Q 1547 409 2034 409 
Q 2525 409 2770 889 
Q 3016 1369 3016 2328 
Q 3016 3291 2770 3770 
Q 2525 4250 2034 4250 
z
M 2034 4750 
Q 2819 4750 3233 4129 
Q 3647 3509 3647 2328 
Q 3647 1150 3233 529 
Q 2819 -91 2034 -91 
Q 1250 -91 836 529 
Q 422 1150 422 2328 
Q 422 3509 836 4129 
Q 1250 4750 2034 4750 
z
" transform="scale(0.015625)"/>
       </defs>
       <use xlink:href="#DejaVuSans-14"/>
       <use xlink:href="#DejaVuSans-1c" transform="translate(63.625 0)"/>
       <use xlink:href="#DejaVuSans-1b" transform="translate(127.25 0)"/>
       <use xlink:href="#DejaVuSans-13" transform="translate(190.875 0)"/>
      </g>
     </g>
    </g>
    <g id="xtick_2">
     <g id="line2d_3">
      <path d="M 200.866147 386.398594 
L 200.866147 22.318125 
" clip-path="url(#pd6f857444e)" style="fill: none; stroke: #b0b0b0; stroke-opacity: 0.2; stroke-width: 0.8; stroke-linecap: square"/>
     </g>
     <g id="line2d_4">
      <g>
       <use xlink:href="#m4067686995" x="200.866147" y="386.398594" style="stroke: #000000; stroke-width: 0.8"/>
      </g>
     </g>
     <g id="text_2">
      <!-- 1984 -->
      <g transform="translate(188.141147 400.99625) scale(0.1 -0.1)">
       <defs>
        <path id="DejaVuSans-17" d="M 2419 4116 
L 825 1625 
L 2419 1625 
L 2419 4116 
z
M 2253 4666 
L 3047 4666 
L 3047 1625 
L 3713 1625 
L 3713 1100 
L 3047 1100 
L 3047 0 
L 2419 0 
L 2419 1100 
L 313 1100 
L 313 1709 
L 2253 4666 
z
" transform="scale(0.015625)"/>
       </defs>
       <use xlink:href="#DejaVuSans-14"/>
       <use xlink:href="#DejaVuSans-1c" transform="translate(63.625 0)"/>
       <use xlink:href="#DejaVuSans-1b" transform="translate(127.25 0)"/>
       <use xlink:href="#DejaVuSans-17" transform="translate(190.875 0)"/>
      </g>
     </g>
    </g>
    <g id="xtick_3">
     <g id="line2d_5">
      <path d="M 274.137477 386.398594 
L 274.137477 22.318125 
" clip-path="url(#pd6f857444e)" style="fill: none; stroke: #b0b0b0; stroke-opacity: 0.2; stroke-width: 0.8; stroke-linecap: square"/>
     </g>
     <g id="line2d_6">
      <g>
       <use xlink:href="#m4067686995" x="274.137477" y="386.398594" style="stroke: #000000; stroke-width: 0.8"/>
      </g>
     </g>
     <g id="text_3">
      <!-- 1988 -->
      <g transform="translate(261.412477 400.99625) scale(0.1 -0.1)">
       <use xlink:href="#DejaVuSans-14"/>
       <use xlink:href="#DejaVuSans-1c" transform="translate(63.625 0)"/>
       <use xlink:href="#DejaVuSans-1b" transform="translate(127.25 0)"/>
       <use xlink:href="#DejaVuSans-1b" transform="translate(190.875 0)"/>
      </g>
     </g>
    </g>
    <g id="xtick_4">
     <g id="line2d_7">
      <path d="M 347.408807 386.398594 
L 347.408807 22.318125 
" clip-path="url(#pd6f857444e)" style="fill: none; stroke: #b0b0b0; stroke-opacity: 0.2; stroke-width: 0.8; stroke-linecap: square"/>
     </g>
     <g id="line2d_8">
      <g>
       <use xlink:href="#m4067686995" x="347.408807" y="386.398594" style="stroke: #000000; stroke-width: 0.8"/>
      </g>
     </g>
     <g id="text_4">
      <!-- 1992 -->
      <g transform="translate(334.683807 400.99625) scale(0.1 -0.1)">
       <defs>
        <path id="DejaVuSans-15" d="M 1228 531 
L 3431 531 
L 3431 0 
L 469 0 
L 469 531 
Q 828 903 1448 1529 
Q 2069 2156 2228 2338 
Q 2531 2678 2651 2914 
Q 2772 3150 2772 3378 
Q 2772 3750 2511 3984 
Q 2250 4219 1831 4219 
Q 1534 4219 1204 4116 
Q 875 4013 500 3803 
L 500 4441 
Q 881 4594 1212 4672 
Q 1544 4750 1819 4750 
Q 2544 4750 2975 4387 
Q 3406 4025 3406 3419 
Q 3406 3131 3298 2873 
Q 3191 2616 2906 2266 
Q 2828 2175 2409 1742 
Q 1991 1309 1228 531 
z
" transform="scale(0.015625)"/>
       </defs>
       <use xlink:href="#DejaVuSans-14"/>
       <use xlink:href="#DejaVuSans-1c" transform="translate(63.625 0)"/>
       <use xlink:href="#DejaVuSans-1c" transform="translate(127.25 0)"/>
       <use xlink:href="#DejaVuSans-15" transform="translate(190.875 0)"/>
      </g>
     </g>
    </g>
    <g id="xtick_5">
     <g id="line2d_9">
      <path d="M 420.680136 386.398594 
L 420.680136 22.318125 
" clip-path="url(#pd6f857444e)" style="fill: none; stroke: #b0b0b0; stroke-opacity: 0.2; stroke-width: 0.8; stroke-linecap: square"/>
     </g>
     <g id="line2d_10">
      <g>
       <use xlink:href="#m4067686995" x="420.680136" y="386.398594" style="stroke: #000000; stroke-width: 0.8"/>
      </g>
     </g>
     <g id="text_5">
      <!-- 1996 -->
      <g transform="translate(407.955136 400.99625) scale(0.1 -0.1)">
       <defs>
        <path id="DejaVuSans-19" d="M 2113 2584 
Q 1688 2584 1439 2293 
Q 1191 2003 1191 1497 
Q 1191 994 1439 701 
Q 1688 409 2113 409 
Q 2538 409 2786 701 
Q 3034 994 3034 1497 
Q 3034 2003 2786 2293 
Q 2538 2584 2113 2584 
z
M 3366 4563 
L 3366 3988 
Q 3128 4100 2886 4159 
Q 2644 4219 2406 4219 
Q 1781 4219 1451 3797 
Q 1122 3375 1075 2522 
Q 1259 2794 1537 2939 
Q 1816 3084 2150 3084 
Q 2853 3084 3261 2657 
Q 3669 2231 3669 1497 
Q 3669 778 3244 343 
Q 2819 -91 2113 -91 
Q 1303 -91 875 529 
Q 447 1150 447 2328 
Q 447 3434 972 4092 
Q 1497 4750 2381 4750 
Q 2619 4750 2861 4703 
Q 3103 4656 3366 4563 
z
" transform="scale(0.015625)"/>
       </defs>
       <use xlink:href="#DejaVuSans-14"/>
       <use xlink:href="#DejaVuSans-1c" transform="translate(63.625 0)"/>
       <use xlink:href="#DejaVuSans-1c" transform="translate(127.25 0)"/>
       <use xlink:href="#DejaVuSans-19" transform="translate(190.875 0)"/>
      </g>
     </g>
    </g>
    <g id="xtick_6">
     <g id="line2d_11">
      <path d="M 493.951466 386.398594 
L 493.951466 22.318125 
" clip-path="url(#pd6f857444e)" style="fill: none; stroke: #b0b0b0; stroke-opacity: 0.2; stroke-width: 0.8; stroke-linecap: square"/>
     </g>
     <g id="line2d_12">
      <g>
       <use xlink:href="#m4067686995" x="493.951466" y="386.398594" style="stroke: #000000; stroke-width: 0.8"/>
      </g>
     </g>
     <g id="text_6">
      <!-- 2000 -->
      <g transform="translate(481.226466 400.99625) scale(0.1 -0.1)">
       <use xlink:href="#DejaVuSans-15"/>
       <use xlink:href="#DejaVuSans-13" transform="translate(63.625 0)"/>
       <use xlink:href="#DejaVuSans-13" transform="translate(127.25 0)"/>
       <use xlink:href="#DejaVuSans-13" transform="translate(190.875 0)"/>
      </g>
     </g>
    </g>
    <g id="xtick_7">
     <g id="line2d_13">
      <path d="M 567.222796 386.398594 
L 567.222796 22.318125 
" clip-path="url(#pd6f857444e)" style="fill: none; stroke: #b0b0b0; stroke-opacity: 0.2; stroke-width: 0.8; stroke-linecap: square"/>
     </g>
     <g id="line2d_14">
      <g>
       <use xlink:href="#m4067686995" x="567.222796" y="386.398594" style="stroke: #000000; stroke-width: 0.8"/>
      </g>
     </g>
     <g id="text_7">
      <!-- 2004 -->
      <g transform="translate(554.497796 400.99625) scale(0.1 -0.1)">
       <use xlink:href="#DejaVuSans-15"/>
       <use xlink:href="#DejaVuSans-13" transform="translate(63.625 0)"/>
       <use xlink:href="#DejaVuSans-13" transform="translate(127.25 0)"/>
       <use xlink:href="#DejaVuSans-17" transform="translate(190.875 0)"/>
      </g>
     </g>
    </g>
    <g id="xtick_8">
     <g id="line2d_15">
      <path d="M 640.494125 386.398594 
L 640.494125 22.318125 
" clip-path="url(#pd6f857444e)" style="fill: none; stroke: #b0b0b0; stroke-opacity: 0.2; stroke-width: 0.8; stroke-linecap: square"/>
     </g>
     <g id="line2d_16">
      <g>
       <use xlink:href="#m4067686995" x="640.494125" y="386.398594" style="stroke: #000000; stroke-width: 0.8"/>
      </g>
     </g>
     <g id="text_8">
      <!-- 2008 -->
      <g transform="translate(627.769125 400.99625) scale(0.1 -0.1)">
       <use xlink:href="#DejaVuSans-15"/>
       <use xlink:href="#DejaVuSans-13" transform="translate(63.625 0)"/>
       <use xlink:href="#DejaVuSans-13" transform="translate(127.25 0)"/>
       <use xlink:href="#DejaVuSans-1b" transform="translate(190.875 0)"/>
      </g>
     </g>
    </g>
    <g id="xtick_9">
     <g id="line2d_17">
      <path d="M 713.765455 386.398594 
L 713.765455 22.318125 
" clip-path="url(#pd6f857444e)" style="fill: none; stroke: #b0b0b0; stroke-opacity: 0.2; stroke-width: 0.8; stroke-linecap: square"/>
     </g>
     <g id="line2d_18">
      <g>
       <use xlink:href="#m4067686995" x="713.765455" y="386.398594" style="stroke: #000000; stroke-width: 0.8"/>
      </g>
     </g>
     <g id="text_9">
      <!-- 2012 -->
      <g transform="translate(701.040455 400.99625) scale(0.1 -0.1)">
       <use xlink:href="#DejaVuSans-15"/>
       <use xlink:href="#DejaVuSans-13" transform="translate(63.625 0)"/>
       <use xlink:href="#DejaVuSans-14" transform="translate(127.25 0)"/>
       <use xlink:href="#DejaVuSans-15" transform="translate(190.875 0)"/>
      </g>
     </g>
    </g>
    <g id="xtick_10">
     <g id="line2d_19">
      <path d="M 787.036785 386.398594 
L 787.036785 22.318125 
" clip-path="url(#pd6f857444e)" style="fill: none; stroke: #b0b0b0; stroke-opacity: 0.2; stroke-width: 0.8; stroke-linecap: square"/>
     </g>
     <g id="line2d_20">
      <g>
       <use xlink:href="#m4067686995" x="787.036785" y="386.398594" style="stroke: #000000; stroke-width: 0.8"/>
      </g>
     </g>
     <g id="text_10">
      <!-- 2016 -->
      <g transform="translate(774.311785 400.99625) scale(0.1 -0.1)">
       <use xlink:href="#DejaVuSans-15"/>
       <use xlink:href="#DejaVuSans-13" transform="translate(63.625 0)"/>
       <use xlink:href="#DejaVuSans-14" transform="translate(127.25 0)"/>
       <use xlink:href="#DejaVuSans-19" transform="translate(190.875 0)"/>
      </g>
     </g>
    </g>
    <g id="text_11">
     <!-- Month -->
     <g transform="translate(414.186766 414.997031) scale(0.1 -0.1)">
      <defs>
       <path id="DejaVuSans-30" d="M 628 4666 
L 1569 4666 
L 2759 1491 
L 3956 4666 
L 4897 4666 
L 4897 0 
L 4281 0 
L 4281 4097 
L 3078 897 
L 2444 897 
L 1241 4097 
L 1241 0 
L 628 0 
L 628 4666 
z
" transform="scale(0.015625)"/>
       <path id="DejaVuSans-52" d="M 1959 3097 
Q 1497 3097 1228 2736 
Q 959 2375 959 1747 
Q 959 1119 1226 758 
Q 1494 397 1959 397 
Q 2419 397 2687 759 
Q 2956 1122 2956 1747 
Q 2956 2369 2687 2733 
Q 2419 3097 1959 3097 
z
M 1959 3584 
Q 2709 3584 3137 3096 
Q 3566 2609 3566 1747 
Q 3566 888 3137 398 
Q 2709 -91 1959 -91 
Q 1206 -91 779 398 
Q 353 888 353 1747 
Q 353 2609 779 3096 
Q 1206 3584 1959 3584 
z
" transform="scale(0.015625)"/>
       <path id="DejaVuSans-51" d="M 3513 2113 
L 3513 0 
L 2938 0 
L 2938 2094 
Q 2938 2591 2744 2837 
Q 2550 3084 2163 3084 
Q 1697 3084 1428 2787 
Q 1159 2491 1159 1978 
L 1159 0 
L 581 0 
L 581 3500 
L 1159 3500 
L 1159 2956 
Q 1366 3272 1645 3428 
Q 1925 3584 2291 3584 
Q 2894 3584 3203 3211 
Q 3513 2838 3513 2113 
z
" transform="scale(0.015625)"/>
       <path id="DejaVuSans-57" d="M 1172 4494 
L 1172 3500 
L 2356 3500 
L 2356 3053 
L 1172 3053 
L 1172 1153 
Q 1172 725 1289 603 
Q 1406 481 1766 481 
L 2356 481 
L 2356 0 
L 1766 0 
Q 1100 0 847 248 
Q 594 497 594 1153 
L 594 3053 
L 172 3053 
L 172 3500 
L 594 3500 
L 594 4494 
L 1172 4494 
z
" transform="scale(0.015625)"/>
       <path id="DejaVuSans-4b" d="M 3513 2113 
L 3513 0 
L 2938 0 
L 2938 2094 
Q 2938 2591 2744 2837 
Q 2550 3084 2163 3084 
Q 1697 3084 1428 2787 
Q 1159 2491 1159 1978 
L 1159 0 
L 581 0 
L 581 4863 
L 1159 4863 
L 1159 2956 
Q 1366 3272 1645 3428 
Q 1925 3584 2291 3584 
Q 2894 3584 3203 3211 
Q 3513 2838 3513 2113 
z
" transform="scale(0.015625)"/>
      </defs>
      <use xlink:href="#DejaVuSans-30"/>
      <use xlink:href="#DejaVuSans-52" transform="translate(86.28125 0)"/>
      <use xlink:href="#DejaVuSans-51" transform="translate(147.46875 0)"/>
      <use xlink:href="#DejaVuSans-57" transform="translate(210.84375 0)"/>
      <use xlink:href="#DejaVuSans-4b" transform="translate(250.046875 0)"/>
     </g>
    </g>
   </g>
   <g id="matplotlib.axis_2">
    <g id="ytick_1">
     <g id="line2d_21">
      <path d="M 58.807031 380.914992 
L 800.908687 380.914992 
" clip-path="url(#pd6f857444e)" style="fill: none; stroke: #b0b0b0; stroke-opacity: 0.2; stroke-width: 0.8; stroke-linecap: square"/>
     </g>
     <g id="line2d_22">
      <defs>
       <path id="m15795200e1" d="M 0 0 
L -3.5 0 
" style="stroke: #000000; stroke-width: 0.8"/>
      </defs>
      <g>
       <use xlink:href="#m15795200e1" x="58.807031" y="380.914992" style="stroke: #000000; stroke-width: 0.8"/>
      </g>
     </g>
     <g id="text_12">
      <!-- −40% -->
      <g transform="translate(21.200781 384.71382) scale(0.1 -0.1)">
       <defs>
        <path id="DejaVuSans-c9c" d="M 678 2272 
L 4684 2272 
L 4684 1741 
L 678 1741 
L 678 2272 
z
" transform="scale(0.015625)"/>
        <path id="DejaVuSans-8" d="M 4653 2053 
Q 4381 2053 4226 1822 
Q 4072 1591 4072 1178 
Q 4072 772 4226 539 
Q 4381 306 4653 306 
Q 4919 306 5073 539 
Q 5228 772 5228 1178 
Q 5228 1588 5073 1820 
Q 4919 2053 4653 2053 
z
M 4653 2450 
Q 5147 2450 5437 2106 
Q 5728 1763 5728 1178 
Q 5728 594 5436 251 
Q 5144 -91 4653 -91 
Q 4153 -91 3862 251 
Q 3572 594 3572 1178 
Q 3572 1766 3864 2108 
Q 4156 2450 4653 2450 
z
M 1428 4353 
Q 1159 4353 1004 4120 
Q 850 3888 850 3481 
Q 850 3069 1003 2837 
Q 1156 2606 1428 2606 
Q 1700 2606 1854 2837 
Q 2009 3069 2009 3481 
Q 2009 3884 1853 4118 
Q 1697 4353 1428 4353 
z
M 4250 4750 
L 4750 4750 
L 1831 -91 
L 1331 -91 
L 4250 4750 
z
M 1428 4750 
Q 1922 4750 2215 4408 
Q 2509 4066 2509 3481 
Q 2509 2891 2217 2550 
Q 1925 2209 1428 2209 
Q 931 2209 642 2551 
Q 353 2894 353 3481 
Q 353 4063 643 4406 
Q 934 4750 1428 4750 
z
" transform="scale(0.015625)"/>
       </defs>
       <use xlink:href="#DejaVuSans-c9c"/>
       <use xlink:href="#DejaVuSans-17" transform="translate(83.796875 0)"/>
       <use xlink:href="#DejaVuSans-13" transform="translate(147.421875 0)"/>
       <use xlink:href="#DejaVuSans-8" transform="translate(211.046875 0)"/>
      </g>
     </g>
    </g>
    <g id="ytick_2">
     <g id="line2d_23">
      <path d="M 58.807031 316.358315 
L 800.908687 316.358315 
" clip-path="url(#pd6f857444e)" style="fill: none; stroke: #b0b0b0; stroke-opacity: 0.2; stroke-width: 0.8; stroke-linecap: square"/>
     </g>
     <g id="line2d_24">
      <g>
       <use xlink:href="#m15795200e1" x="58.807031" y="316.358315" style="stroke: #000000; stroke-width: 0.8"/>
      </g>
     </g>
     <g id="text_13">
      <!-- −20% -->
      <g transform="translate(21.200781 320.157143) scale(0.1 -0.1)">
       <use xlink:href="#DejaVuSans-c9c"/>
       <use xlink:href="#DejaVuSans-15" transform="translate(83.796875 0)"/>
       <use xlink:href="#DejaVuSans-13" transform="translate(147.421875 0)"/>
       <use xlink:href="#DejaVuSans-8" transform="translate(211.046875 0)"/>
      </g>
     </g>
    </g>
    <g id="ytick_3">
     <g id="line2d_25">
      <path d="M 58.807031 251.801638 
L 800.908687 251.801638 
" clip-path="url(#pd6f857444e)" style="fill: none; stroke: #b0b0b0; stroke-opacity: 0.2; stroke-width: 0.8; stroke-linecap: square"/>
     </g>
     <g id="line2d_26">
      <g>
       <use xlink:href="#m15795200e1" x="58.807031" y="251.801638" style="stroke: #000000; stroke-width: 0.8"/>
      </g>
     </g>
     <g id="text_14">
      <!-- 0% -->
      <g transform="translate(35.942969 255.600466) scale(0.1 -0.1)">
       <use xlink:href="#DejaVuSans-13"/>
       <use xlink:href="#DejaVuSans-8" transform="translate(63.625 0)"/>
      </g>
     </g>
    </g>
    <g id="ytick_4">
     <g id="line2d_27">
      <path d="M 58.807031 187.244961 
L 800.908687 187.244961 
" clip-path="url(#pd6f857444e)" style="fill: none; stroke: #b0b0b0; stroke-opacity: 0.2; stroke-width: 0.8; stroke-linecap: square"/>
     </g>
     <g id="line2d_28">
      <g>
       <use xlink:href="#m15795200e1" x="58.807031" y="187.244961" style="stroke: #000000; stroke-width: 0.8"/>
      </g>
     </g>
     <g id="text_15">
      <!-- 20% -->
      <g transform="translate(29.580469 191.043789) scale(0.1 -0.1)">
       <use xlink:href="#DejaVuSans-15"/>
       <use xlink:href="#DejaVuSans-13" transform="translate(63.625 0)"/>
       <use xlink:href="#DejaVuSans-8" transform="translate(127.25 0)"/>
      </g>
     </g>
    </g>
    <g id="ytick_5">
     <g id="line2d_29">
      <path d="M 58.807031 122.688284 
L 800.908687 122.688284 
" clip-path="url(#pd6f857444e)" style="fill: none; stroke: #b0b0b0; stroke-opacity: 0.2; stroke-width: 0.8; stroke-linecap: square"/>
     </g>
     <g id="line2d_30">
      <g>
       <use xlink:href="#m15795200e1" x="58.807031" y="122.688284" style="stroke: #000000; stroke-width: 0.8"/>
      </g>
     </g>
     <g id="text_16">
      <!-- 40% -->
      <g transform="translate(29.580469 126.487112) scale(0.1 -0.1)">
       <use xlink:href="#DejaVuSans-17"/>
       <use xlink:href="#DejaVuSans-13" transform="translate(63.625 0)"/>
       <use xlink:href="#DejaVuSans-8" transform="translate(127.25 0)"/>
      </g>
     </g>
    </g>
    <g id="ytick_6">
     <g id="line2d_31">
      <path d="M 58.807031 58.131607 
L 800.908687 58.131607 
" clip-path="url(#pd6f857444e)" style="fill: none; stroke: #b0b0b0; stroke-opacity: 0.2; stroke-width: 0.8; stroke-linecap: square"/>
     </g>
     <g id="line2d_32">
      <g>
       <use xlink:href="#m15795200e1" x="58.807031" y="58.131607" style="stroke: #000000; stroke-width: 0.8"/>
      </g>
     </g>
     <g id="text_17">
      <!-- 60% -->
      <g transform="translate(29.580469 61.930435) scale(0.1 -0.1)">
       <use xlink:href="#DejaVuSans-19"/>
       <use xlink:href="#DejaVuSans-13" transform="translate(63.625 0)"/>
       <use xlink:href="#DejaVuSans-8" transform="translate(127.25 0)"/>
      </g>
     </g>
    </g>
    <g id="text_18">
     <!-- Cumulative return -->
     <g transform="translate(14.798438 249.772422) rotate(-90) scale(0.1 -0.1)">
      <defs>
       <path id="DejaVuSans-26" d="M 4122 4306 
L 4122 3641 
Q 3803 3938 3442 4084 
Q 3081 4231 2675 4231 
Q 1875 4231 1450 3742 
Q 1025 3253 1025 2328 
Q 1025 1406 1450 917 
Q 1875 428 2675 428 
Q 3081 428 3442 575 
Q 3803 722 4122 1019 
L 4122 359 
Q 3791 134 3420 21 
Q 3050 -91 2638 -91 
Q 1578 -91 968 557 
Q 359 1206 359 2328 
Q 359 3453 968 4101 
Q 1578 4750 2638 4750 
Q 3056 4750 3426 4639 
Q 3797 4528 4122 4306 
z
" transform="scale(0.015625)"/>
       <path id="DejaVuSans-58" d="M 544 1381 
L 544 3500 
L 1119 3500 
L 1119 1403 
Q 1119 906 1312 657 
Q 1506 409 1894 409 
Q 2359 409 2629 706 
Q 2900 1003 2900 1516 
L 2900 3500 
L 3475 3500 
L 3475 0 
L 2900 0 
L 2900 538 
Q 2691 219 2414 64 
Q 2138 -91 1772 -91 
Q 1169 -91 856 284 
Q 544 659 544 1381 
z
M 1991 3584 
L 1991 3584 
z
" transform="scale(0.015625)"/>
       <path id="DejaVuSans-50" d="M 3328 2828 
Q 3544 3216 3844 3400 
Q 4144 3584 4550 3584 
Q 5097 3584 5394 3201 
Q 5691 2819 5691 2113 
L 5691 0 
L 5113 0 
L 5113 2094 
Q 5113 2597 4934 2840 
Q 4756 3084 4391 3084 
Q 3944 3084 3684 2787 
Q 3425 2491 3425 1978 
L 3425 0 
L 2847 0 
L 2847 2094 
Q 2847 2600 2669 2842 
Q 2491 3084 2119 3084 
Q 1678 3084 1418 2786 
Q 1159 2488 1159 1978 
L 1159 0 
L 581 0 
L 581 3500 
L 1159 3500 
L 1159 2956 
Q 1356 3278 1631 3431 
Q 1906 3584 2284 3584 
Q 2666 3584 2933 3390 
Q 3200 3197 3328 2828 
z
" transform="scale(0.015625)"/>
       <path id="DejaVuSans-4f" d="M 603 4863 
L 1178 4863 
L 1178 0 
L 603 0 
L 603 4863 
z
" transform="scale(0.015625)"/>
       <path id="DejaVuSans-44" d="M 2194 1759 
Q 1497 1759 1228 1600 
Q 959 1441 959 1056 
Q 959 750 1161 570 
Q 1363 391 1709 391 
Q 2188 391 2477 730 
Q 2766 1069 2766 1631 
L 2766 1759 
L 2194 1759 
z
M 3341 1997 
L 3341 0 
L 2766 0 
L 2766 531 
Q 2569 213 2275 61 
Q 1981 -91 1556 -91 
Q 1019 -91 701 211 
Q 384 513 384 1019 
Q 384 1609 779 1909 
Q 1175 2209 1959 2209 
L 2766 2209 
L 2766 2266 
Q 2766 2663 2505 2880 
Q 2244 3097 1772 3097 
Q 1472 3097 1187 3025 
Q 903 2953 641 2809 
L 641 3341 
Q 956 3463 1253 3523 
Q 1550 3584 1831 3584 
Q 2591 3584 2966 3190 
Q 3341 2797 3341 1997 
z
" transform="scale(0.015625)"/>
       <path id="DejaVuSans-4c" d="M 603 3500 
L 1178 3500 
L 1178 0 
L 603 0 
L 603 3500 
z
M 603 4863 
L 1178 4863 
L 1178 4134 
L 603 4134 
L 603 4863 
z
" transform="scale(0.015625)"/>
       <path id="DejaVuSans-59" d="M 191 3500 
L 800 3500 
L 1894 563 
L 2988 3500 
L 3597 3500 
L 2284 0 
L 1503 0 
L 191 3500 
z
" transform="scale(0.015625)"/>
       <path id="DejaVuSans-48" d="M 3597 1894 
L 3597 1613 
L 953 1613 
Q 991 1019 1311 708 
Q 1631 397 2203 397 
Q 2534 397 2845 478 
Q 3156 559 3463 722 
L 3463 178 
Q 3153 47 2828 -22 
Q 2503 -91 2169 -91 
Q 1331 -91 842 396 
Q 353 884 353 1716 
Q 353 2575 817 3079 
Q 1281 3584 2069 3584 
Q 2775 3584 3186 3129 
Q 3597 2675 3597 1894 
z
M 3022 2063 
Q 3016 2534 2758 2815 
Q 2500 3097 2075 3097 
Q 1594 3097 1305 2825 
Q 1016 2553 972 2059 
L 3022 2063 
z
" transform="scale(0.015625)"/>
       <path id="DejaVuSans-3" transform="scale(0.015625)"/>
       <path id="DejaVuSans-55" d="M 2631 2963 
Q 2534 3019 2420 3045 
Q 2306 3072 2169 3072 
Q 1681 3072 1420 2755 
Q 1159 2438 1159 1844 
L 1159 0 
L 581 0 
L 581 3500 
L 1159 3500 
L 1159 2956 
Q 1341 3275 1631 3429 
Q 1922 3584 2338 3584 
Q 2397 3584 2469 3576 
Q 2541 3569 2628 3553 
L 2631 2963 
z
" transform="scale(0.015625)"/>
      </defs>
      <use xlink:href="#DejaVuSans-26"/>
      <use xlink:href="#DejaVuSans-58" transform="translate(69.828125 0)"/>
      <use xlink:href="#DejaVuSans-50" transform="translate(133.203125 0)"/>
      <use xlink:href="#DejaVuSans-58" transform="translate(230.609375 0)"/>
      <use xlink:href="#DejaVuSans-4f" transform="translate(293.984375 0)"/>
      <use xlink:href="#DejaVuSans-44" transform="translate(321.765625 0)"/>
      <use xlink:href="#DejaVuSans-57" transform="translate(383.046875 0)"/>
      <use xlink:href="#DejaVuSans-4c" transform="translate(422.25 0)"/>
      <use xlink:href="#DejaVuSans-59" transform="translate(450.03125 0)"/>
      <use xlink:href="#DejaVuSans-48" transform="translate(509.21875 0)"/>
      <use xlink:href="#DejaVuSans-3" transform="translate(570.75 0)"/>
      <use xlink:href="#DejaVuSans-55" transform="translate(602.53125 0)"/>
      <use xlink:href="#DejaVuSans-48" transform="translate(641.4375 0)"/>
      <use xlink:href="#DejaVuSans-57" transform="translate(702.96875 0)"/>
      <use xlink:href="#DejaVuSans-58" transform="translate(742.171875 0)"/>
      <use xlink:href="#DejaVuSans-55" transform="translate(805.546875 0)"/>
      <use xlink:href="#DejaVuSans-51" transform="translate(844.90625 0)"/>
     </g>
    </g>
   </g>
   <g id="line2d_33">
    <path d="M 92.538925 247.377793 
L 93.943166 221.817801 
L 95.497863 233.201828 
L 97.002407 226.104015 
L 98.557104 198.2043 
L 100.061649 173.45043 
L 101.616345 180.331966 
L 103.171041 175.652521 
L 104.675586 155.715727 
L 106.230282 198.794146 
L 107.734827 192.187871 
L 109.289523 212.144326 
L 110.844219 214.031834 
L 113.803157 250.248377 
L 115.307702 250.327023 
L 116.862398 248.10527 
L 118.366943 247.613732 
L 119.921639 252.135884 
L 121.476336 261.219512 
L 122.98088 276.693139 
L 124.535577 294.801411 
L 126.040121 286.268305 
L 127.594818 284.891998 
L 129.149514 301.171747 
L 130.603907 300.05104 
L 132.158603 290.121966 
L 133.663148 270.322802 
L 135.217844 267.334249 
L 136.722389 276.988062 
L 139.831782 250.484315 
L 141.336326 250.602285 
L 142.891023 260.472374 
L 144.395567 239.985057 
L 145.950264 248.439516 
L 147.50496 256.107514 
L 148.909202 261.455451 
L 150.463898 269.162772 
L 151.968443 280.979353 
L 153.523139 289.492797 
L 155.027684 306.4607 
L 156.58238 299.598825 
L 158.137076 303.845716 
L 159.641621 305.752884 
L 161.196317 284.597075 
L 162.700862 293.012211 
L 164.255558 304.769808 
L 167.214496 329.268078 
L 168.769192 319.103065 
L 170.273737 328.796201 
L 171.828433 341.831797 
L 173.332978 346.235981 
L 174.887674 348.988595 
L 177.946915 364.501545 
L 179.501612 341.713828 
L 181.006156 326.318848 
L 182.560853 334.262107 
L 185.519791 334.104815 
L 187.074487 333.475646 
L 188.579032 335.776045 
L 190.133728 336.405214 
L 191.638273 341.10432 
L 193.192969 343.935581 
L 194.747665 334.832291 
L 196.25221 334.616015 
L 197.806906 332.531892 
L 199.311451 331.450508 
L 200.866147 336.503522 
L 202.420844 335.83503 
L 203.875237 326.98734 
L 205.429933 330.172508 
L 208.489174 343.011489 
L 209.993719 352.409702 
L 211.548415 349.637426 
L 213.103111 355.260624 
L 214.607656 355.044347 
L 216.162352 358.111546 
L 217.666897 362.732007 
L 219.221593 365.85819 
L 220.77629 369.849482 
L 222.180531 363.16456 
L 223.735228 365.386314 
L 225.239772 364.226283 
L 226.794469 362.751668 
L 228.299013 351.898502 
L 229.85371 355.142655 
L 231.408406 332.413923 
L 232.912951 327.282263 
L 234.467647 316.645374 
L 235.972192 313.715805 
L 237.526888 302.626701 
L 239.081584 285.206583 
L 240.485826 281.313599 
L 242.040522 267.412895 
L 243.545067 277.106031 
L 246.604308 238.549765 
L 249.7137 240.968134 
L 251.218245 259.312344 
L 252.772941 256.854652 
L 254.277486 249.38327 
L 255.832182 241.086103 
L 257.386879 240.319303 
L 258.79112 223.626662 
L 260.345817 210.237158 
L 261.850361 220.126909 
L 263.405058 228.08983 
L 264.909602 236.681919 
L 266.464299 219.517401 
L 268.018995 230.508198 
L 269.52354 211.495496 
L 271.078236 195.078116 
L 272.582781 162.125387 
L 274.137477 185.817534 
L 275.692173 187.606733 
L 277.146566 176.065414 
L 278.701263 179.270243 
L 280.205807 180.449935 
L 281.760504 205.223467 
L 283.265048 206.206543 
L 284.819745 215.958664 
L 286.374441 209.706296 
L 287.878986 187.724703 
L 289.433682 175.278952 
L 290.938227 188.33421 
L 292.492923 205.321774 
L 294.047619 196.572392 
L 295.451861 214.307095 
L 297.006557 217.000725 
L 298.511102 243.858379 
L 300.065798 246.984563 
L 301.570343 231.058721 
L 303.125039 252.096561 
L 304.679736 238.628411 
L 306.18428 248.773762 
L 307.738977 249.343947 
L 309.243521 252.961669 
L 310.798218 254.298653 
L 312.352914 264.404681 
L 313.757156 282.414645 
L 315.311852 284.026891 
L 316.816397 271.777756 
L 318.371093 271.915386 
L 319.875638 259.371328 
L 321.430334 254.829514 
L 322.98503 242.639364 
L 324.489575 220.834724 
L 327.548816 234.735428 
L 329.103512 224.157523 
L 330.658208 228.935275 
L 332.06245 248.87207 
L 333.617146 236.544289 
L 335.121691 240.928811 
L 336.676387 238.825026 
L 338.180932 237.940258 
L 339.735628 236.131396 
L 341.290325 225.730446 
L 342.794869 219.792663 
L 344.349566 217.138356 
L 345.85411 202.156268 
L 347.408807 204.908882 
L 348.963503 215.073895 
L 350.417896 223.174446 
L 351.972592 224.668723 
L 353.477137 209.077127 
L 355.031833 203.198329 
L 356.536378 207.209282 
L 358.091074 194.979808 
L 359.645771 184.991749 
L 361.150315 195.3927 
L 362.705012 199.089069 
L 364.209556 199.973838 
L 365.764253 199.659253 
L 367.318949 178.818028 
L 368.723191 167.257047 
L 371.782432 138.57087 
L 373.337128 137.312532 
L 374.841673 127.874997 
L 376.396369 128.05195 
L 377.951065 134.127364 
L 379.45561 143.604223 
L 381.010306 146.455145 
L 382.514851 157.603234 
L 384.069547 145.649022 
L 385.624244 129.388935 
L 387.028485 119.361553 
L 388.583182 117.080815 
L 390.087726 131.964595 
L 391.642423 104.359803 
L 393.146967 113.384447 
L 394.701664 114.131585 
L 396.25636 110.356571 
L 397.760905 100.742081 
L 399.315601 111.49694 
L 400.820146 116.431984 
L 402.374842 117.926261 
L 403.929538 105.244572 
L 405.33378 52.178095 
L 406.888476 38.867237 
L 408.393021 42.445636 
L 409.947717 46.771173 
L 411.452262 69.834151 
L 413.006958 118.81103 
L 414.561654 132.141549 
L 416.066199 143.761515 
L 417.620895 145.727668 
L 419.12544 153.336682 
L 420.680136 169.321508 
L 422.234833 164.032555 
L 423.689226 173.017876 
L 425.243922 166.332955 
L 426.748467 179.840428 
L 428.303163 186.66298 
L 429.807708 177.579352 
L 432.9171 197.712761 
L 434.421645 208.251343 
L 435.976341 209.096789 
L 437.480886 217.374294 
L 439.035582 235.089335 
L 440.590279 232.552998 
L 441.99452 243.543794 
L 443.549217 253.787453 
L 445.053761 225.573153 
L 446.608458 221.994754 
L 448.113002 235.777489 
L 449.667699 243.760071 
L 451.222395 243.661764 
L 452.72694 244.959425 
L 454.281636 265.348434 
L 455.786181 273.62594 
L 457.340877 266.665757 
L 458.895573 265.387757 
L 460.299815 283.12246 
L 461.854511 283.88926 
L 463.359056 297.141133 
L 464.913752 299.067963 
L 466.418297 310.904206 
L 467.972993 305.104054 
L 469.527689 297.986579 
L 471.032234 250.0321 
L 472.58693 270.145848 
L 474.091475 246.237424 
L 475.646171 255.360376 
L 477.200868 263.539573 
L 478.60511 264.738927 
L 480.159806 267.157295 
L 481.664351 273.350678 
L 483.219047 273.62594 
L 484.723592 257.798406 
L 486.278288 244.821794 
L 487.832984 236.701581 
L 490.892225 224.845677 
L 492.39677 227.893214 
L 493.951466 246.257086 
L 495.506162 255.655299 
L 496.960556 232.906905 
L 498.515252 253.256592 
L 500.019797 253.354899 
L 501.574493 249.835485 
L 503.079038 261.809358 
L 504.633734 255.969883 
L 506.18843 261.730712 
L 507.692975 265.93828 
L 509.247671 271.345202 
L 510.752216 284.223506 
L 512.306912 290.141627 
L 513.861608 293.779011 
L 515.26585 314.266328 
L 516.820546 310.235714 
L 518.325091 301.309378 
L 519.879787 314.462943 
L 521.384332 315.976881 
L 522.939028 303.098577 
L 524.493725 305.870854 
L 525.998269 312.791713 
L 527.552966 315.819589 
L 529.05751 332.099338 
L 530.612207 338.233737 
L 532.166903 336.542845 
L 533.571145 335.186199 
L 535.125841 327.75414 
L 536.630386 319.771557 
L 538.185082 309.980114 
L 539.689627 311.08116 
L 541.244323 309.03636 
L 542.799019 316.153835 
L 544.303564 318.513219 
L 545.85826 318.788481 
L 547.362805 310.707591 
L 548.917501 313.676482 
L 550.472197 309.862145 
L 551.876439 310.451991 
L 553.431135 312.260852 
L 554.93568 313.401221 
L 556.490376 314.738205 
L 557.994921 316.763343 
L 559.549617 308.190914 
L 561.104314 296.07941 
L 562.608858 292.894242 
L 564.163555 291.812858 
L 565.668099 286.97612 
L 567.222796 282.35566 
L 568.777492 291.793196 
L 570.231885 278.993538 
L 571.786582 295.332272 
L 573.291126 295.705841 
L 574.845823 291.891504 
L 576.350367 298.871348 
L 577.905064 293.857657 
L 579.45976 296.07941 
L 580.964305 285.737444 
L 582.519001 277.951477 
L 584.023546 277.499262 
L 585.578242 281.19563 
L 587.132938 284.164521 
L 588.53718 292.166765 
L 590.091876 286.563228 
L 591.596421 296.865872 
L 593.151117 303.413162 
L 594.655662 307.935315 
L 596.210358 304.533869 
L 597.765054 312.359159 
L 599.269599 319.299681 
L 600.824295 327.478878 
L 602.32884 324.608294 
L 603.883536 324.274048 
L 605.438233 321.580418 
L 606.842474 326.869371 
L 608.397171 319.16205 
L 609.901715 317.825066 
L 611.456412 322.897741 
L 612.960956 324.274048 
L 614.515653 331.253893 
L 616.070349 333.711584 
L 619.12959 330.978631 
L 620.634135 338.646629 
L 622.188831 342.755889 
L 623.743527 338.941552 
L 625.147769 338.823583 
L 626.702465 343.168781 
L 628.20701 348.202134 
L 629.761706 351.682225 
L 631.266251 344.407458 
L 632.820947 339.629706 
L 634.375643 338.332044 
L 635.880188 340.494813 
L 637.434884 332.551554 
L 638.939429 334.989584 
L 640.494125 324.03811 
L 642.048822 318.611527 
L 643.503215 308.072945 
L 645.057911 319.201373 
L 646.562456 323.408941 
L 648.117152 325.19814 
L 649.621697 329.916908 
L 651.176393 332.276292 
L 652.731089 325.768325 
L 654.235634 308.957714 
L 655.79033 300.444271 
L 657.294875 286.563228 
L 658.849571 283.731968 
L 660.404268 307.719038 
L 661.80851 311.297437 
L 663.363206 310.432329 
L 664.867751 300.680209 
L 666.422447 303.76707 
L 667.926992 299.559502 
L 669.481688 294.191903 
L 671.036384 285.009967 
L 672.540929 286.287967 
L 674.095625 273.88154 
L 675.60017 295.469903 
L 677.154866 286.681197 
L 678.709562 282.119722 
L 680.113804 296.570949 
L 681.6685 297.927594 
L 683.173045 288.411412 
L 686.232286 274.13714 
L 687.786982 266.05625 
L 689.341679 263.657543 
L 690.846223 252.568438 
L 692.40092 264.738927 
L 693.905464 255.498006 
L 695.460161 258.919113 
L 697.014857 257.936036 
L 698.419099 263.166004 
L 699.973795 255.655299 
L 701.47834 257.129914 
L 703.033036 253.118961 
L 704.537581 238.923334 
L 706.092277 236.917858 
L 707.646973 239.198596 
L 709.151518 243.48481 
L 710.706214 241.459672 
L 712.210759 239.277242 
L 713.765455 236.072412 
L 715.320151 257.031606 
L 716.774545 263.598558 
L 718.329241 251.801638 
L 719.833786 245.863855 
L 721.388482 252.155546 
L 722.893027 245.175702 
L 724.447723 246.198101 
L 726.002419 244.782471 
L 727.506964 252.253853 
L 729.06166 262.615481 
L 732.120901 293.543072 
L 733.675597 297.514702 
L 735.079839 301.702609 
L 736.634535 311.33676 
L 738.13908 319.633927 
L 741.198321 312.142883 
L 742.753017 313.243928 
L 744.307714 313.401221 
L 745.812258 313.77479 
L 747.366955 324.313371 
L 748.871499 331.076939 
L 750.426196 324.097095 
L 751.980892 322.819095 
L 753.385134 326.338509 
L 754.93983 323.684202 
L 757.999071 321.659064 
L 759.503616 325.670017 
L 761.058312 328.678232 
L 762.613008 341.300936 
L 764.117553 346.727519 
L 765.672249 359.094623 
L 767.176794 361.277053 
L 767.176794 361.277053 
" clip-path="url(#pd6f857444e)" style="fill: none; stroke: #1f77b4; stroke-width: 1.2; stroke-linecap: square"/>
   </g>
   <g id="patch_3">
    <path d="M 58.807031 386.398594 
L 58.807031 22.318125 
" style="fill: none; stroke: #000000; stroke-width: 0.8; stroke-linejoin: miter; stroke-linecap: square"/>
   </g>
   <g id="patch_4">
    <path d="M 58.807031 386.398594 
L 800.908687 386.398594 
" style="fill: none; stroke: #000000; stroke-width: 0.8; stroke-linejoin: miter; stroke-linecap: square"/>
   </g>
   <g id="text_19">
    <!-- JN: cumulative price return -->
    <g transform="translate(349.224422 16.318125) scale(0.12 -0.12)">
     <defs>
      <path id="DejaVuSans-2d" d="M 628 4666 
L 1259 4666 
L 1259 325 
Q 1259 -519 939 -900 
Q 619 -1281 -91 -1281 
L -331 -1281 
L -331 -750 
L -134 -750 
Q 284 -750 456 -515 
Q 628 -281 628 325 
L 628 4666 
z
" transform="scale(0.015625)"/>
      <path id="DejaVuSans-31" d="M 628 4666 
L 1478 4666 
L 3547 763 
L 3547 4666 
L 4159 4666 
L 4159 0 
L 3309 0 
L 1241 3903 
L 1241 0 
L 628 0 
L 628 4666 
z
" transform="scale(0.015625)"/>
      <path id="DejaVuSans-1d" d="M 750 794 
L 1409 794 
L 1409 0 
L 750 0 
L 750 794 
z
M 750 3309 
L 1409 3309 
L 1409 2516 
L 750 2516 
L 750 3309 
z
" transform="scale(0.015625)"/>
      <path id="DejaVuSans-46" d="M 3122 3366 
L 3122 2828 
Q 2878 2963 2633 3030 
Q 2388 3097 2138 3097 
Q 1578 3097 1268 2742 
Q 959 2388 959 1747 
Q 959 1106 1268 751 
Q 1578 397 2138 397 
Q 2388 397 2633 464 
Q 2878 531 3122 666 
L 3122 134 
Q 2881 22 2623 -34 
Q 2366 -91 2075 -91 
Q 1284 -91 818 406 
Q 353 903 353 1747 
Q 353 2603 823 3093 
Q 1294 3584 2113 3584 
Q 2378 3584 2631 3529 
Q 2884 3475 3122 3366 
z
" transform="scale(0.015625)"/>
      <path id="DejaVuSans-53" d="M 1159 525 
L 1159 -1331 
L 581 -1331 
L 581 3500 
L 1159 3500 
L 1159 2969 
Q 1341 3281 1617 3432 
Q 1894 3584 2278 3584 
Q 2916 3584 3314 3078 
Q 3713 2572 3713 1747 
Q 3713 922 3314 415 
Q 2916 -91 2278 -91 
Q 1894 -91 1617 61 
Q 1341 213 1159 525 
z
M 3116 1747 
Q 3116 2381 2855 2742 
Q 2594 3103 2138 3103 
Q 1681 3103 1420 2742 
Q 1159 2381 1159 1747 
Q 1159 1113 1420 752 
Q 1681 391 2138 391 
Q 2594 391 2855 752 
Q 3116 1113 3116 1747 
z
" transform="scale(0.015625)"/>
     </defs>
     <use xlink:href="#DejaVuSans-2d"/>
     <use xlink:href="#DejaVuSans-31" transform="translate(29.5 0)"/>
     <use xlink:href="#DejaVuSans-1d" transform="translate(104.3125 0)"/>
     <use xlink:href="#DejaVuSans-3" transform="translate(138 0)"/>
     <use xlink:href="#DejaVuSans-46" transform="translate(169.78125 0)"/>
     <use xlink:href="#DejaVuSans-58" transform="translate(224.765625 0)"/>
     <use xlink:href="#DejaVuSans-50" transform="translate(288.140625 0)"/>
     <use xlink:href="#DejaVuSans-58" transform="translate(385.546875 0)"/>
     <use xlink:href="#DejaVuSans-4f" transform="translate(448.921875 0)"/>
     <use xlink:href="#DejaVuSans-44" transform="translate(476.703125 0)"/>
     <use xlink:href="#DejaVuSans-57" transform="translate(537.984375 0)"/>
     <use xlink:href="#DejaVuSans-4c" transform="translate(577.1875 0)"/>
     <use xlink:href="#DejaVuSans-59" transform="translate(604.96875 0)"/>
     <use xlink:href="#DejaVuSans-48" transform="translate(664.15625 0)"/>
     <use xlink:href="#DejaVuSans-3" transform="translate(725.6875 0)"/>
     <use xlink:href="#DejaVuSans-53" transform="translate(757.46875 0)"/>
     <use xlink:href="#DejaVuSans-55" transform="translate(820.953125 0)"/>
     <use xlink:href="#DejaVuSans-4c" transform="translate(862.0625 0)"/>
     <use xlink:href="#DejaVuSans-46" transform="translate(889.84375 0)"/>
     <use xlink:href="#DejaVuSans-48" transform="translate(944.828125 0)"/>
     <use xlink:href="#DejaVuSans-3" transform="translate(1006.359375 0)"/>
     <use xlink:href="#DejaVuSans-55" transform="translate(1038.140625 0)"/>
     <use xlink:href="#DejaVuSans-48" transform="translate(1077.046875 0)"/>
     <use xlink:href="#DejaVuSans-57" transform="translate(1138.578125 0)"/>
     <use xlink:href="#DejaVuSans-58" transform="translate(1177.78125 0)"/>
     <use xlink:href="#DejaVuSans-55" transform="translate(1241.15625 0)"/>
     <use xlink:href="#DejaVuSans-51" transform="translate(1280.515625 0)"/>
    </g>
   </g>
   <g id="legend_1">
    <g id="patch_5">
     <path d="M 813.929704 40.71875 
L 847.874704 40.71875 
Q 849.474704 40.71875 849.474704 39.11875 
L 849.474704 27.918125 
Q 849.474704 26.318125 847.874704 26.318125 
L 813.929704 26.318125 
Q 812.329704 26.318125 812.329704 27.918125 
L 812.329704 39.11875 
Q 812.329704 40.71875 813.929704 40.71875 
z
" style="fill: #ffffff; opacity: 0.8; stroke: #cccccc; stroke-linejoin: miter"/>
    </g>
    <g id="line2d_34">
     <path d="M 815.529704 32.796875 
L 823.529704 32.796875 
L 831.529704 32.796875 
" style="fill: none; stroke: #1f77b4; stroke-width: 1.2; stroke-linecap: square"/>
    </g>
    <g id="text_20">
     <!-- JN -->
     <g transform="translate(837.929704 35.596875) scale(0.08 -0.08)">
      <use xlink:href="#DejaVuSans-2d"/>
      <use xlink:href="#DejaVuSans-31" transform="translate(29.5 0)"/>
     </g>
    </g>
   </g>
  </g>
 </g>
 <defs>
  <clipPath id="pd6f857444e">
   <rect x="58.807031" y="22.318125" width="742.101656" height="364.080469"/>
  </clipPath>
 </defs>
</svg>
