<?xml version="1.0" encoding="utf-8" standalone="no"?>
<!DOCTYPE svg PUBLIC "-//W3C//DTD SVG 1.1//EN"
  "http://www.w3.org/Graphics/SVG/1.1/DTD/svg11.dtd">
<svg xmlns:xlink="http://www.w3.org/1999/xlink" width="856.668454pt" height="424.599375pt" viewBox="0 0 856.668454 424.599375" xmlns="http://www.w3.org/2000/svg" version="1.1">
 <metadata>
  <rdf:RDF xmlns:dc="http://purl.org/dc/elements/1.1/" xmlns:cc="http://creativecommons.org/ns#" xmlns:rdf="http://www.w3.org/1999/02/22-rdf-syntax-ns#">
   <cc:Work>
    <dc:type rdf:resource="http://purl.org/dc/dcmitype/StillImage"/>
    <dc:date>2026-10-06T17:27:19.445665</dc:date>
    <dc:format>image/svg+xml</dc:format>
    <dc:creator>
     <cc:Agent>
      <dc:title>Matplotlib v3.11.2, https://matplotlib.org/</dc:title>
     </cc:Agent>
    </dc:creator>
   </cc:Work>
  </rdf:RDF>
 </metadata>
 <defs>
  <style type="text/css">*{stroke-linejoin: round; stroke-linecap: butt}</style>
 </defs>
 <g id="figure_1">
  <g id="patch_1">
   <path d="M 0 424.599375 
L 856.668454 424.599375 
L 856.668454 0 
L 0 0 
z
" style="fill: #ffffff"/>
  </g>
  <g id="axes_1">
   <g id="patch_2">
    <path d="M 65.169531 386.398594 
L 798.271187 386.398594 
L 798.271187 22.318125 
L 65.169531 22.318125 
z
" style="fill: #ffffff"/>
   </g>
   <g id="matplotlib.axis_1">
    <g id="xtick_1">
     <g id="line2d_1">
      <path d="M 97.230569 386.398594 
L 97.230569 22.318125 
" clip-path="url(#p76860e18a1)" style="fill: none; stroke: #b0b0b0; stroke-opacity: 0.2; stroke-width: 0.8; stroke-linecap: square"/>
     </g>
     <g id="line2d_2">
      <defs>
       <path id="m498428c682" d="M 0 0 
L 0 3.5 
" style="stroke: #000000; stroke-width: 0.8"/>
      </defs>
      <g>
       <use xlink:href="#m498428c682" x="97.230569" y="386.398594" style="stroke: #000000; stroke-width: 0.8"/>
      </g>
     </g>
     <g id="text_1">
      <!-- 1970 -->
      <g transform="translate(84.505569 400.99625) scale(0.1 -0.1)">
       <defs>
        <path id="DejaVuSans-14" d="M 794 531 
L 1825 531 
L 1825 4091 
L 703 3866 
L 703 4441 
L 1819 4666 
L 2450 4666 
L 2450 531 
L 3481 531 
L 3481 0 
L 794 0 
L 794 531 
z
" transform="scale(0.015625)"/>
        <path id="DejaVuSans-1c" d="M 703 97 
L 703 672 
Q 941 559 1184 500 
Q 1428 441 1663 441 
Q 2288 441 2617 861 
Q 2947 1281 2994 2138 
Q 2813 1869 2534 1725 
Q 2256 1581 1919 1581 
Q 1219 1581 811 2004 
Q 403 2428 403 3163 
Q 403 3881 828 4315 
Q 1253 4750 1959 4750 
Q 2769 4750 3195 4129 
Q 3622 3509 3622 2328 
Q 3622 1225 3098 567 
Q 2575 -91 1691 -91 
Q 1453 -91 1209 -44 
Q 966 3 703 97 
z
M 1959 2075 
Q 2384 2075 2632 2365 
Q 2881 2656 2881 3163 
Q 2881 3666 2632 3958 
Q 2384 4250 1959 4250 
Q 1534 4250 1286 3958 
Q 1038 3666 1038 3163 
Q 1038 2656 1286 2365 
Q 1534 2075 1959 2075 
z
" transform="scale(0.015625)"/>
        <path id="DejaVuSans-1a" d="M 525 4666 
L 3525 4666 
L 3525 4397 
L 1831 0 
L 1172 0 
L 2766 4134 
L 525 4134 
L 525 4666 
z
" transform="scale(0.015625)"/>
        <path id="DejaVuSans-13" d="M 2034 4250 
Q 1547 4250 1301 3770 
Q 1056 3291 1056 2328 
Q 1056 1369 1301 889 
Q 1547 409 2034 409 
Q 2525 409 2770 889 
Q 3016 1369 3016 2328 
Q 3016 3291 2770 3770 
Q 2525 4250 2034 4250 
z
M 2034 4750 
Q 2819 4750 3233 4129 
Q 3647 3509 3647 2328 
Q 3647 1150 3233 529 
Q 2819 -91 2034 -91 
Q 1250 -91 836 529 
Q 422 1150 422 2328 
Q 422 3509 836 4129 
Q 1250 4750 2034 4750 
z
" transform="scale(0.015625)"/>
       </defs>
       <use xlink:href="#DejaVuSans-14"/>
       <use xlink:href="#DejaVuSans-1c" transform="translate(63.625 0)"/>
       <use xlink:href="#DejaVuSans-1a" transform="translate(127.25 0)"/>
       <use xlink:href="#DejaVuSans-13" transform="translate(190.875 0)"/>
      </g>
     </g>
    </g>
    <g id="xtick_2">
     <g id="line2d_3">
      <path d="M 171.552589 386.398594 
L 171.552589 22.318125 
" clip-path="url(#p76860e18a1)" style="fill: none; stroke: #b0b0b0; stroke-opacity: 0.2; stroke-width: 0.8; stroke-linecap: square"/>
     </g>
     <g id="line2d_4">
      <g>
       <use xlink:href="#m498428c682" x="171.552589" y="386.398594" style="stroke: #000000; stroke-width: 0.8"/>
      </g>
     </g>
     <g id="text_2">
      <!-- 1975 -->
      <g transform="translate(158.827589 400.99625) scale(0.1 -0.1)">
       <defs>
        <path id="DejaVuSans-18" d="M 691 4666 
L 3169 4666 
L 3169 4134 
L 1269 4134 
L 1269 2991 
Q 1406 3038 1543 3061 
Q 1681 3084 1819 3084 
Q 2600 3084 3056 2656 
Q 3513 2228 3513 1497 
Q 3513 744 3044 326 
Q 2575 -91 1722 -91 
Q 1428 -91 1123 -41 
Q 819 9 494 109 
L 494 744 
Q 775 591 1075 516 
Q 1375 441 1709 441 
Q 2250 441 2565 725 
Q 2881 1009 2881 1497 
Q 2881 1984 2565 2268 
Q 2250 2553 1709 2553 
Q 1456 2553 1204 2497 
Q 953 2441 691 2322 
L 691 4666 
z
" transform="scale(0.015625)"/>
       </defs>
       <use xlink:href="#DejaVuSans-14"/>
       <use xlink:href="#DejaVuSans-1c" transform="translate(63.625 0)"/>
       <use xlink:href="#DejaVuSans-1a" transform="translate(127.25 0)"/>
       <use xlink:href="#DejaVuSans-18" transform="translate(190.875 0)"/>
      </g>
     </g>
    </g>
    <g id="xtick_3">
     <g id="line2d_5">
      <path d="M 245.874608 386.398594 
L 245.874608 22.318125 
" clip-path="url(#p76860e18a1)" style="fill: none; stroke: #b0b0b0; stroke-opacity: 0.2; stroke-width: 0.8; stroke-linecap: square"/>
     </g>
     <g id="line2d_6">
      <g>
       <use xlink:href="#m498428c682" x="245.874608" y="386.398594" style="stroke: #000000; stroke-width: 0.8"/>
      </g>
     </g>
     <g id="text_3">
      <!-- 1980 -->
      <g transform="translate(233.149608 400.99625) scale(0.1 -0.1)">
       <defs>
        <path id="DejaVuSans-1b" d="M 2034 2216 
Q 1584 2216 1326 1975 
Q 1069 1734 1069 1313 
Q 1069 891 1326 650 
Q 1584 409 2034 409 
Q 2484 409 2743 651 
Q 3003 894 3003 1313 
Q 3003 1734 2745 1975 
Q 2488 2216 2034 2216 
z
M 1403 2484 
Q 997 2584 770 2862 
Q 544 3141 544 3541 
Q 544 4100 942 4425 
Q 1341 4750 2034 4750 
Q 2731 4750 3128 4425 
Q 3525 4100 3525 3541 
Q 3525 3141 3298 2862 
Q 3072 2584 2669 2484 
Q 3125 2378 3379 2068 
Q 3634 1759 3634 1313 
Q 3634 634 3220 271 
Q 2806 -91 2034 -91 
Q 1263 -91 848 271 
Q 434 634 434 1313 
Q 434 1759 690 2068 
Q 947 2378 1403 2484 
z
M 1172 3481 
Q 1172 3119 1398 2916 
Q 1625 2713 2034 2713 
Q 2441 2713 2670 2916 
Q 2900 3119 2900 3481 
Q 2900 3844 2670 4047 
Q 2441 4250 2034 4250 
Q 1625 4250 1398 4047 
Q 1172 3844 1172 3481 
z
" transform="scale(0.015625)"/>
       </defs>
       <use xlink:href="#DejaVuSans-14"/>
       <use xlink:href="#DejaVuSans-1c" transform="translate(63.625 0)"/>
       <use xlink:href="#DejaVuSans-1b" transform="translate(127.25 0)"/>
       <use xlink:href="#DejaVuSans-13" transform="translate(190.875 0)"/>
      </g>
     </g>
    </g>
    <g id="xtick_4">
     <g id="line2d_7">
      <path d="M 320.23733 386.398594 
L 320.23733 22.318125 
" clip-path="url(#p76860e18a1)" style="fill: none; stroke: #b0b0b0; stroke-opacity: 0.2; stroke-width: 0.8; stroke-linecap: square"/>
     </g>
     <g id="line2d_8">
      <g>
       <use xlink:href="#m498428c682" x="320.23733" y="386.398594" style="stroke: #000000; stroke-width: 0.8"/>
      </g>
     </g>
     <g id="text_4">
      <!-- 1985 -->
      <g transform="translate(307.51233 400.99625) scale(0.1 -0.1)">
       <use xlink:href="#DejaVuSans-14"/>
       <use xlink:href="#DejaVuSans-1c" transform="translate(63.625 0)"/>
       <use xlink:href="#DejaVuSans-1b" transform="translate(127.25 0)"/>
       <use xlink:href="#DejaVuSans-18" transform="translate(190.875 0)"/>
      </g>
     </g>
    </g>
    <g id="xtick_5">
     <g id="line2d_9">
      <path d="M 394.55935 386.398594 
L 394.55935 22.318125 
" clip-path="url(#p76860e18a1)" style="fill: none; stroke: #b0b0b0; stroke-opacity: 0.2; stroke-width: 0.8; stroke-linecap: square"/>
     </g>
     <g id="line2d_10">
      <g>
       <use xlink:href="#m498428c682" x="394.55935" y="386.398594" style="stroke: #000000; stroke-width: 0.8"/>
      </g>
     </g>
     <g id="text_5">
      <!-- 1990 -->
      <g transform="translate(381.83435 400.99625) scale(0.1 -0.1)">
       <use xlink:href="#DejaVuSans-14"/>
       <use xlink:href="#DejaVuSans-1c" transform="translate(63.625 0)"/>
       <use xlink:href="#DejaVuSans-1c" transform="translate(127.25 0)"/>
       <use xlink:href="#DejaVuSans-13" transform="translate(190.875 0)"/>
      </g>
     </g>
    </g>
    <g id="xtick_6">
     <g id="line2d_11">
      <path d="M 468.881369 386.398594 
L 468.881369 22.318125 
" clip-path="url(#p76860e18a1)" style="fill: none; stroke: #b0b0b0; stroke-opacity: 0.2; stroke-width: 0.8; stroke-linecap: square"/>
     </g>
     <g id="line2d_12">
      <g>
       <use xlink:href="#m498428c682" x="468.881369" y="386.398594" style="stroke: #000000; stroke-width: 0.8"/>
      </g>
     </g>
     <g id="text_6">
      <!-- 1995 -->
      <g transform="translate(456.156369 400.99625) scale(0.1 -0.1)">
       <use xlink:href="#DejaVuSans-14"/>
       <use xlink:href="#DejaVuSans-1c" transform="translate(63.625 0)"/>
       <use xlink:href="#DejaVuSans-1c" transform="translate(127.25 0)"/>
       <use xlink:href="#DejaVuSans-18" transform="translate(190.875 0)"/>
      </g>
     </g>
    </g>
    <g id="xtick_7">
     <g id="line2d_13">
      <path d="M 543.203389 386.398594 
L 543.203389 22.318125 
" clip-path="url(#p76860e18a1)" style="fill: none; stroke: #b0b0b0; stroke-opacity: 0.2; stroke-width: 0.8; stroke-linecap: square"/>
     </g>
     <g id="line2d_14">
      <g>
       <use xlink:href="#m498428c682" x="543.203389" y="386.398594" style="stroke: #000000; stroke-width: 0.8"/>
      </g>
     </g>
     <g id="text_7">
      <!-- 2000 -->
      <g transform="translate(530.478389 400.99625) scale(0.1 -0.1)">
       <defs>
        <path id="DejaVuSans-15" d="M 1228 531 
L 3431 531 
L 3431 0 
L 469 0 
L 469 531 
Q 828 903 1448 1529 
Q 2069 2156 2228 2338 
Q 2531 2678 2651 2914 
Q 2772 3150 2772 3378 
Q 2772 3750 2511 3984 
Q 2250 4219 1831 4219 
Q 1534 4219 1204 4116 
Q 875 4013 500 3803 
L 500 4441 
Q 881 4594 1212 4672 
Q 1544 4750 1819 4750 
Q 2544 4750 2975 4387 
Q 3406 4025 3406 3419 
Q 3406 3131 3298 2873 
Q 3191 2616 2906 2266 
Q 2828 2175 2409 1742 
Q 1991 1309 1228 531 
z
" transform="scale(0.015625)"/>
       </defs>
       <use xlink:href="#DejaVuSans-15"/>
       <use xlink:href="#DejaVuSans-13" transform="translate(63.625 0)"/>
       <use xlink:href="#DejaVuSans-13" transform="translate(127.25 0)"/>
       <use xlink:href="#DejaVuSans-13" transform="translate(190.875 0)"/>
      </g>
     </g>
    </g>
    <g id="xtick_8">
     <g id="line2d_15">
      <path d="M 617.566111 386.398594 
L 617.566111 22.318125 
" clip-path="url(#p76860e18a1)" style="fill: none; stroke: #b0b0b0; stroke-opacity: 0.2; stroke-width: 0.8; stroke-linecap: square"/>
     </g>
     <g id="line2d_16">
      <g>
       <use xlink:href="#m498428c682" x="617.566111" y="386.398594" style="stroke: #000000; stroke-width: 0.8"/>
      </g>
     </g>
     <g id="text_8">
      <!-- 2005 -->
      <g transform="translate(604.841111 400.99625) scale(0.1 -0.1)">
       <use xlink:href="#DejaVuSans-15"/>
       <use xlink:href="#DejaVuSans-13" transform="translate(63.625 0)"/>
       <use xlink:href="#DejaVuSans-13" transform="translate(127.25 0)"/>
       <use xlink:href="#DejaVuSans-18" transform="translate(190.875 0)"/>
      </g>
     </g>
    </g>
    <g id="xtick_9">
     <g id="line2d_17">
      <path d="M 691.88813 386.398594 
L 691.88813 22.318125 
" clip-path="url(#p76860e18a1)" style="fill: none; stroke: #b0b0b0; stroke-opacity: 0.2; stroke-width: 0.8; stroke-linecap: square"/>
     </g>
     <g id="line2d_18">
      <g>
       <use xlink:href="#m498428c682" x="691.88813" y="386.398594" style="stroke: #000000; stroke-width: 0.8"/>
      </g>
     </g>
     <g id="text_9">
      <!-- 2010 -->
      <g transform="translate(679.16313 400.99625) scale(0.1 -0.1)">
       <use xlink:href="#DejaVuSans-15"/>
       <use xlink:href="#DejaVuSans-13" transform="translate(63.625 0)"/>
       <use xlink:href="#DejaVuSans-14" transform="translate(127.25 0)"/>
       <use xlink:href="#DejaVuSans-13" transform="translate(190.875 0)"/>
      </g>
     </g>
    </g>
    <g id="xtick_10">
     <g id="line2d_19">
      <path d="M 766.21015 386.398594 
L 766.21015 22.318125 
" clip-path="url(#p76860e18a1)" style="fill: none; stroke: #b0b0b0; stroke-opacity: 0.2; stroke-width: 0.8; stroke-linecap: square"/>
     </g>
     <g id="line2d_20">
      <g>
       <use xlink:href="#m498428c682" x="766.21015" y="386.398594" style="stroke: #000000; stroke-width: 0.8"/>
      </g>
     </g>
     <g id="text_10">
      <!-- 2015 -->
      <g transform="translate(753.48515 400.99625) scale(0.1 -0.1)">
       <use xlink:href="#DejaVuSans-15"/>
       <use xlink:href="#DejaVuSans-13" transform="translate(63.625 0)"/>
       <use xlink:href="#DejaVuSans-14" transform="translate(127.25 0)"/>
       <use xlink:href="#DejaVuSans-18" transform="translate(190.875 0)"/>
      </g>
     </g>
    </g>
    <g id="text_11">
     <!-- Month -->
     <g transform="translate(416.049266 414.997031) scale(0.1 -0.1)">
      <defs>
       <path id="DejaVuSans-30" d="M 628 4666 
L 1569 4666 
L 2759 1491 
L 3956 4666 
L 4897 4666 
L 4897 0 
L 4281 0 
L 4281 4097 
L 3078 897 
L 2444 897 
L 1241 4097 
L 1241 0 
L 628 0 
L 628 4666 
z
" transform="scale(0.015625)"/>
       <path id="DejaVuSans-52" d="M 1959 3097 
Q 1497 3097 1228 2736 
Q 959 2375 959 1747 
Q 959 1119 1226 758 
Q 1494 397 1959 397 
Q 2419 397 2687 759 
Q 2956 1122 2956 1747 
Q 2956 2369 2687 2733 
Q 2419 3097 1959 3097 
z
M 1959 3584 
Q 2709 3584 3137 3096 
Q 3566 2609 3566 1747 
Q 3566 888 3137 398 
Q 2709 -91 1959 -91 
Q 1206 -91 779 398 
Q 353 888 353 1747 
Q 353 2609 779 3096 
Q 1206 3584 1959 3584 
z
" transform="scale(0.015625)"/>
       <path id="DejaVuSans-51" d="M 3513 2113 
L 3513 0 
L 2938 0 
L 2938 2094 
Q 2938 2591 2744 2837 
Q 2550 3084 2163 3084 
Q 1697 3084 1428 2787 
Q 1159 2491 1159 1978 
L 1159 0 
L 581 0 
L 581 3500 
L 1159 3500 
L 1159 2956 
Q 1366 3272 1645 3428 
Q 1925 3584 2291 3584 
Q 2894 3584 3203 3211 
Q 3513 2838 3513 2113 
z
" transform="scale(0.015625)"/>
       <path id="DejaVuSans-57" d="M 1172 4494 
L 1172 3500 
L 2356 3500 
L 2356 3053 
L 1172 3053 
L 1172 1153 
Q 1172 725 1289 603 
Q 1406 481 1766 481 
L 2356 481 
L 2356 0 
L 1766 0 
Q 1100 0 847 248 
Q 594 497 594 1153 
L 594 3053 
L 172 3053 
L 172 3500 
L 594 3500 
L 594 4494 
L 1172 4494 
z
" transform="scale(0.015625)"/>
       <path id="DejaVuSans-4b" d="M 3513 2113 
L 3513 0 
L 2938 0 
L 2938 2094 
Q 2938 2591 2744 2837 
Q 2550 3084 2163 3084 
Q 1697 3084 1428 2787 
Q 1159 2491 1159 1978 
L 1159 0 
L 581 0 
L 581 4863 
L 1159 4863 
L 1159 2956 
Q 1366 3272 1645 3428 
Q 1925 3584 2291 3584 
Q 2894 3584 3203 3211 
Q 3513 2838 3513 2113 
z
" transform="scale(0.015625)"/>
      </defs>
      <use xlink:href="#DejaVuSans-30"/>
      <use xlink:href="#DejaVuSans-52" transform="translate(86.28125 0)"/>
      <use xlink:href="#DejaVuSans-51" transform="translate(147.46875 0)"/>
      <use xlink:href="#DejaVuSans-57" transform="translate(210.84375 0)"/>
      <use xlink:href="#DejaVuSans-4b" transform="translate(250.046875 0)"/>
     </g>
    </g>
   </g>
   <g id="matplotlib.axis_2">
    <g id="ytick_1">
     <g id="line2d_21">
      <path d="M 65.169531 380.707823 
L 798.271187 380.707823 
" clip-path="url(#p76860e18a1)" style="fill: none; stroke: #b0b0b0; stroke-opacity: 0.2; stroke-width: 0.8; stroke-linecap: square"/>
     </g>
     <g id="line2d_22">
      <defs>
       <path id="mbdceb3211d" d="M 0 0 
L -3.5 0 
" style="stroke: #000000; stroke-width: 0.8"/>
      </defs>
      <g>
       <use xlink:href="#mbdceb3211d" x="65.169531" y="380.707823" style="stroke: #000000; stroke-width: 0.8"/>
      </g>
     </g>
     <g id="text_12">
      <!-- −100% -->
      <g transform="translate(21.200781 384.506651) scale(0.1 -0.1)">
       <defs>
        <path id="DejaVuSans-c9c" d="M 678 2272 
L 4684 2272 
L 4684 1741 
L 678 1741 
L 678 2272 
z
" transform="scale(0.015625)"/>
        <path id="DejaVuSans-8" d="M 4653 2053 
Q 4381 2053 4226 1822 
Q 4072 1591 4072 1178 
Q 4072 772 4226 539 
Q 4381 306 4653 306 
Q 4919 306 5073 539 
Q 5228 772 5228 1178 
Q 5228 1588 5073 1820 
Q 4919 2053 4653 2053 
z
M 4653 2450 
Q 5147 2450 5437 2106 
Q 5728 1763 5728 1178 
Q 5728 594 5436 251 
Q 5144 -91 4653 -91 
Q 4153 -91 3862 251 
Q 3572 594 3572 1178 
Q 3572 1766 3864 2108 
Q 4156 2450 4653 2450 
z
M 1428 4353 
Q 1159 4353 1004 4120 
Q 850 3888 850 3481 
Q 850 3069 1003 2837 
Q 1156 2606 1428 2606 
Q 1700 2606 1854 2837 
Q 2009 3069 2009 3481 
Q 2009 3884 1853 4118 
Q 1697 4353 1428 4353 
z
M 4250 4750 
L 4750 4750 
L 1831 -91 
L 1331 -91 
L 4250 4750 
z
M 1428 4750 
Q 1922 4750 2215 4408 
Q 2509 4066 2509 3481 
Q 2509 2891 2217 2550 
Q 1925 2209 1428 2209 
Q 931 2209 642 2551 
Q 353 2894 353 3481 
Q 353 4063 643 4406 
Q 934 4750 1428 4750 
z
" transform="scale(0.015625)"/>
       </defs>
       <use xlink:href="#DejaVuSans-c9c"/>
       <use xlink:href="#DejaVuSans-14" transform="translate(83.796875 0)"/>
       <use xlink:href="#DejaVuSans-13" transform="translate(147.421875 0)"/>
       <use xlink:href="#DejaVuSans-13" transform="translate(211.046875 0)"/>
       <use xlink:href="#DejaVuSans-8" transform="translate(274.671875 0)"/>
      </g>
     </g>
    </g>
    <g id="ytick_2">
     <g id="line2d_23">
      <path d="M 65.169531 327.60582 
L 798.271187 327.60582 
" clip-path="url(#p76860e18a1)" style="fill: none; stroke: #b0b0b0; stroke-opacity: 0.2; stroke-width: 0.8; stroke-linecap: square"/>
     </g>
     <g id="line2d_24">
      <g>
       <use xlink:href="#mbdceb3211d" x="65.169531" y="327.60582" style="stroke: #000000; stroke-width: 0.8"/>
      </g>
     </g>
     <g id="text_13">
      <!-- −50% -->
      <g transform="translate(27.563281 331.404648) scale(0.1 -0.1)">
       <use xlink:href="#DejaVuSans-c9c"/>
       <use xlink:href="#DejaVuSans-18" transform="translate(83.796875 0)"/>
       <use xlink:href="#DejaVuSans-13" transform="translate(147.421875 0)"/>
       <use xlink:href="#DejaVuSans-8" transform="translate(211.046875 0)"/>
      </g>
     </g>
    </g>
    <g id="ytick_3">
     <g id="line2d_25">
      <path d="M 65.169531 274.503817 
L 798.271187 274.503817 
" clip-path="url(#p76860e18a1)" style="fill: none; stroke: #b0b0b0; stroke-opacity: 0.2; stroke-width: 0.8; stroke-linecap: square"/>
     </g>
     <g id="line2d_26">
      <g>
       <use xlink:href="#mbdceb3211d" x="65.169531" y="274.503817" style="stroke: #000000; stroke-width: 0.8"/>
      </g>
     </g>
     <g id="text_14">
      <!-- 0% -->
      <g transform="translate(42.305469 278.302645) scale(0.1 -0.1)">
       <use xlink:href="#DejaVuSans-13"/>
       <use xlink:href="#DejaVuSans-8" transform="translate(63.625 0)"/>
      </g>
     </g>
    </g>
    <g id="ytick_4">
     <g id="line2d_27">
      <path d="M 65.169531 221.401814 
L 798.271187 221.401814 
" clip-path="url(#p76860e18a1)" style="fill: none; stroke: #b0b0b0; stroke-opacity: 0.2; stroke-width: 0.8; stroke-linecap: square"/>
     </g>
     <g id="line2d_28">
      <g>
       <use xlink:href="#mbdceb3211d" x="65.169531" y="221.401814" style="stroke: #000000; stroke-width: 0.8"/>
      </g>
     </g>
     <g id="text_15">
      <!-- 50% -->
      <g transform="translate(35.942969 225.200642) scale(0.1 -0.1)">
       <use xlink:href="#DejaVuSans-18"/>
       <use xlink:href="#DejaVuSans-13" transform="translate(63.625 0)"/>
       <use xlink:href="#DejaVuSans-8" transform="translate(127.25 0)"/>
      </g>
     </g>
    </g>
    <g id="ytick_5">
     <g id="line2d_29">
      <path d="M 65.169531 168.299811 
L 798.271187 168.299811 
" clip-path="url(#p76860e18a1)" style="fill: none; stroke: #b0b0b0; stroke-opacity: 0.2; stroke-width: 0.8; stroke-linecap: square"/>
     </g>
     <g id="line2d_30">
      <g>
       <use xlink:href="#mbdceb3211d" x="65.169531" y="168.299811" style="stroke: #000000; stroke-width: 0.8"/>
      </g>
     </g>
     <g id="text_16">
      <!-- 100% -->
      <g transform="translate(29.580469 172.098639) scale(0.1 -0.1)">
       <use xlink:href="#DejaVuSans-14"/>
       <use xlink:href="#DejaVuSans-13" transform="translate(63.625 0)"/>
       <use xlink:href="#DejaVuSans-13" transform="translate(127.25 0)"/>
       <use xlink:href="#DejaVuSans-8" transform="translate(190.875 0)"/>
      </g>
     </g>
    </g>
    <g id="ytick_6">
     <g id="line2d_31">
      <path d="M 65.169531 115.197808 
L 798.271187 115.197808 
" clip-path="url(#p76860e18a1)" style="fill: none; stroke: #b0b0b0; stroke-opacity: 0.2; stroke-width: 0.8; stroke-linecap: square"/>
     </g>
     <g id="line2d_32">
      <g>
       <use xlink:href="#mbdceb3211d" x="65.169531" y="115.197808" style="stroke: #000000; stroke-width: 0.8"/>
      </g>
     </g>
     <g id="text_17">
      <!-- 150% -->
      <g transform="translate(29.580469 118.996636) scale(0.1 -0.1)">
       <use xlink:href="#DejaVuSans-14"/>
       <use xlink:href="#DejaVuSans-18" transform="translate(63.625 0)"/>
       <use xlink:href="#DejaVuSans-13" transform="translate(127.25 0)"/>
       <use xlink:href="#DejaVuSans-8" transform="translate(190.875 0)"/>
      </g>
     </g>
    </g>
    <g id="ytick_7">
     <g id="line2d_33">
      <path d="M 65.169531 62.095805 
L 798.271187 62.095805 
" clip-path="url(#p76860e18a1)" style="fill: none; stroke: #b0b0b0; stroke-opacity: 0.2; stroke-width: 0.8; stroke-linecap: square"/>
     </g>
     <g id="line2d_34">
      <g>
       <use xlink:href="#mbdceb3211d" x="65.169531" y="62.095805" style="stroke: #000000; stroke-width: 0.8"/>
      </g>
     </g>
     <g id="text_18">
      <!-- 200% -->
      <g transform="translate(29.580469 65.894633) scale(0.1 -0.1)">
       <use xlink:href="#DejaVuSans-15"/>
       <use xlink:href="#DejaVuSans-13" transform="translate(63.625 0)"/>
       <use xlink:href="#DejaVuSans-13" transform="translate(127.25 0)"/>
       <use xlink:href="#DejaVuSans-8" transform="translate(190.875 0)"/>
      </g>
     </g>
    </g>
    <g id="text_19">
     <!-- Cumulative return -->
     <g transform="translate(14.798438 249.772422) rotate(-90) scale(0.1 -0.1)">
      <defs>
       <path id="DejaVuSans-26" d="M 4122 4306 
L 4122 3641 
Q 3803 3938 3442 4084 
Q 3081 4231 2675 4231 
Q 1875 4231 1450 3742 
Q 1025 3253 1025 2328 
Q 1025 1406 1450 917 
Q 1875 428 2675 428 
Q 3081 428 3442 575 
Q 3803 722 4122 1019 
L 4122 359 
Q 3791 134 3420 21 
Q 3050 -91 2638 -91 
Q 1578 -91 968 557 
Q 359 1206 359 2328 
Q 359 3453 968 4101 
Q 1578 4750 2638 4750 
Q 3056 4750 3426 4639 
Q 3797 4528 4122 4306 
z
" transform="scale(0.015625)"/>
       <path id="DejaVuSans-58" d="M 544 1381 
L 544 3500 
L 1119 3500 
L 1119 1403 
Q 1119 906 1312 657 
Q 1506 409 1894 409 
Q 2359 409 2629 706 
Q 2900 1003 2900 1516 
L 2900 3500 
L 3475 3500 
L 3475 0 
L 2900 0 
L 2900 538 
Q 2691 219 2414 64 
Q 2138 -91 1772 -91 
Q 1169 -91 856 284 
Q 544 659 544 1381 
z
M 1991 3584 
L 1991 3584 
z
" transform="scale(0.015625)"/>
       <path id="DejaVuSans-50" d="M 3328 2828 
Q 3544 3216 3844 3400 
Q 4144 3584 4550 3584 
Q 5097 3584 5394 3201 
Q 5691 2819 5691 2113 
L 5691 0 
L 5113 0 
L 5113 2094 
Q 5113 2597 4934 2840 
Q 4756 3084 4391 3084 
Q 3944 3084 3684 2787 
Q 3425 2491 3425 1978 
L 3425 0 
L 2847 0 
L 2847 2094 
Q 2847 2600 2669 2842 
Q 2491 3084 2119 3084 
Q 1678 3084 1418 2786 
Q 1159 2488 1159 1978 
L 1159 0 
L 581 0 
L 581 3500 
L 1159 3500 
L 1159 2956 
Q 1356 3278 1631 3431 
Q 1906 3584 2284 3584 
Q 2666 3584 2933 3390 
Q 3200 3197 3328 2828 
z
" transform="scale(0.015625)"/>
       <path id="DejaVuSans-4f" d="M 603 4863 
L 1178 4863 
L 1178 0 
L 603 0 
L 603 4863 
z
" transform="scale(0.015625)"/>
       <path id="DejaVuSans-44" d="M 2194 1759 
Q 1497 1759 1228 1600 
Q 959 1441 959 1056 
Q 959 750 1161 570 
Q 1363 391 1709 391 
Q 2188 391 2477 730 
Q 2766 1069 2766 1631 
L 2766 1759 
L 2194 1759 
z
M 3341 1997 
L 3341 0 
L 2766 0 
L 2766 531 
Q 2569 213 2275 61 
Q 1981 -91 1556 -91 
Q 1019 -91 701 211 
Q 384 513 384 1019 
Q 384 1609 779 1909 
Q 1175 2209 1959 2209 
L 2766 2209 
L 2766 2266 
Q 2766 2663 2505 2880 
Q 2244 3097 1772 3097 
Q 1472 3097 1187 3025 
Q 903 2953 641 2809 
L 641 3341 
Q 956 3463 1253 3523 
Q 1550 3584 1831 3584 
Q 2591 3584 2966 3190 
Q 3341 2797 3341 1997 
z
" transform="scale(0.015625)"/>
       <path id="DejaVuSans-4c" d="M 603 3500 
L 1178 3500 
L 1178 0 
L 603 0 
L 603 3500 
z
M 603 4863 
L 1178 4863 
L 1178 4134 
L 603 4134 
L 603 4863 
z
" transform="scale(0.015625)"/>
       <path id="DejaVuSans-59" d="M 191 3500 
L 800 3500 
L 1894 563 
L 2988 3500 
L 3597 3500 
L 2284 0 
L 1503 0 
L 191 3500 
z
" transform="scale(0.015625)"/>
       <path id="DejaVuSans-48" d="M 3597 1894 
L 3597 1613 
L 953 1613 
Q 991 1019 1311 708 
Q 1631 397 2203 397 
Q 2534 397 2845 478 
Q 3156 559 3463 722 
L 3463 178 
Q 3153 47 2828 -22 
Q 2503 -91 2169 -91 
Q 1331 -91 842 396 
Q 353 884 353 1716 
Q 353 2575 817 3079 
Q 1281 3584 2069 3584 
Q 2775 3584 3186 3129 
Q 3597 2675 3597 1894 
z
M 3022 2063 
Q 3016 2534 2758 2815 
Q 2500 3097 2075 3097 
Q 1594 3097 1305 2825 
Q 1016 2553 972 2059 
L 3022 2063 
z
" transform="scale(0.015625)"/>
       <path id="DejaVuSans-3" transform="scale(0.015625)"/>
       <path id="DejaVuSans-55" d="M 2631 2963 
Q 2534 3019 2420 3045 
Q 2306 3072 2169 3072 
Q 1681 3072 1420 2755 
Q 1159 2438 1159 1844 
L 1159 0 
L 581 0 
L 581 3500 
L 1159 3500 
L 1159 2956 
Q 1341 3275 1631 3429 
Q 1922 3584 2338 3584 
Q 2397 3584 2469 3576 
Q 2541 3569 2628 3553 
L 2631 2963 
z
" transform="scale(0.015625)"/>
      </defs>
      <use xlink:href="#DejaVuSans-26"/>
      <use xlink:href="#DejaVuSans-58" transform="translate(69.828125 0)"/>
      <use xlink:href="#DejaVuSans-50" transform="translate(133.203125 0)"/>
      <use xlink:href="#DejaVuSans-58" transform="translate(230.609375 0)"/>
      <use xlink:href="#DejaVuSans-4f" transform="translate(293.984375 0)"/>
      <use xlink:href="#DejaVuSans-44" transform="translate(321.765625 0)"/>
      <use xlink:href="#DejaVuSans-57" transform="translate(383.046875 0)"/>
      <use xlink:href="#DejaVuSans-4c" transform="translate(422.25 0)"/>
      <use xlink:href="#DejaVuSans-59" transform="translate(450.03125 0)"/>
      <use xlink:href="#DejaVuSans-48" transform="translate(509.21875 0)"/>
      <use xlink:href="#DejaVuSans-3" transform="translate(570.75 0)"/>
      <use xlink:href="#DejaVuSans-55" transform="translate(602.53125 0)"/>
      <use xlink:href="#DejaVuSans-48" transform="translate(641.4375 0)"/>
      <use xlink:href="#DejaVuSans-57" transform="translate(702.96875 0)"/>
      <use xlink:href="#DejaVuSans-58" transform="translate(742.171875 0)"/>
      <use xlink:href="#DejaVuSans-55" transform="translate(805.546875 0)"/>
      <use xlink:href="#DejaVuSans-51" transform="translate(844.90625 0)"/>
     </g>
    </g>
   </g>
   <g id="line2d_35">
    <path d="M 98.492334 273.060862 
L 99.631992 273.279457 
L 100.893757 268.703054 
L 102.11482 268.590329 
L 103.376585 260.764707 
L 104.597648 266.647348 
L 105.859412 244.255457 
L 107.121177 248.671342 
L 108.34224 251.868388 
L 109.604005 251.909708 
L 110.825068 249.160324 
L 112.086832 250.530732 
L 113.348597 253.895913 
L 114.488256 259.193032 
L 115.750021 261.565015 
L 116.971083 257.129138 
L 118.232848 256.016931 
L 119.453911 270.747526 
L 120.715676 279.541402 
L 121.977441 284.444936 
L 123.198504 281.997549 
L 124.460268 282.237279 
L 125.681331 279.252354 
L 126.943096 281.414883 
L 128.204861 284.04659 
L 129.385221 281.654804 
L 130.646986 282.51852 
L 131.868049 283.679473 
L 133.129814 286.603275 
L 134.350877 283.94986 
L 135.612642 278.923129 
L 136.874406 274.464973 
L 138.095469 277.02756 
L 139.357234 274.814953 
L 140.578297 266.814912 
L 141.840062 261.847018 
L 143.101826 258.592467 
L 144.241485 261.001962 
L 145.50325 253.781094 
L 146.724313 212.596132 
L 147.986077 216.414879 
L 149.20714 143.829746 
L 150.468905 166.133094 
L 151.73067 164.633966 
L 152.951733 176.412006 
L 154.213497 155.33835 
L 155.43456 152.149111 
L 156.696325 124.084225 
L 157.95809 111.471031 
L 159.097748 148.801257 
L 160.359513 150.087502 
L 161.580576 159.843729 
L 162.842341 129.883656 
L 164.063404 51.622861 
L 165.325169 78.785376 
L 166.586933 38.867237 
L 167.807996 44.821855 
L 169.069761 58.959311 
L 170.290824 87.683028 
L 171.552589 113.834636 
L 172.814353 159.20451 
L 173.954012 128.375579 
L 176.43684 152.640378 
L 177.698604 157.105199 
L 178.919667 122.981159 
L 180.181432 108.415462 
L 181.443197 107.965705 
L 182.66426 130.900274 
L 183.926024 136.452357 
L 185.147087 151.773044 
L 186.408852 148.708907 
L 187.670617 142.425826 
L 188.850978 153.140024 
L 190.112742 149.95764 
L 191.333805 135.628056 
L 192.59557 135.133742 
L 193.816633 139.649403 
L 195.078398 137.475831 
L 196.340162 148.778788 
L 197.561225 161.38608 
L 198.82299 171.827035 
L 200.044053 165.319075 
L 201.305818 167.838248 
L 202.567583 166.087013 
L 203.707241 174.483306 
L 204.969006 176.664114 
L 206.190069 179.088461 
L 207.451834 200.66519 
L 208.672896 225.787423 
L 209.934661 235.318581 
L 212.417489 218.448117 
L 213.679254 212.702002 
L 214.900316 216.374321 
L 216.162081 214.538162 
L 217.423846 215.615903 
L 218.563505 195.566483 
L 219.825269 201.726937 
L 221.046332 185.225114 
L 222.308097 198.458676 
L 223.52916 215.487945 
L 224.790925 222.653403 
L 226.05269 219.808813 
L 227.273752 214.119632 
L 229.75658 223.333752 
L 231.018345 221.636213 
L 232.28011 220.213633 
L 233.419768 217.12398 
L 234.681533 211.050163 
L 235.902596 209.613682 
L 237.164361 191.807335 
L 238.385423 203.160372 
L 239.647188 201.721606 
L 240.908953 204.374449 
L 242.130016 215.60981 
L 243.391781 209.869789 
L 244.612843 211.042928 
L 245.874608 219.548137 
L 247.136373 226.54127 
L 248.316734 236.586546 
L 249.578499 232.325277 
L 250.799561 233.257543 
L 252.061326 229.172026 
L 253.282389 205.979066 
L 254.544154 193.839811 
L 255.805919 198.413358 
L 257.026981 185.47646 
L 258.288746 175.239439 
L 259.509809 190.812804 
L 260.771574 202.115952 
L 262.033339 200.672616 
L 263.172997 203.107246 
L 264.434762 206.617142 
L 265.655825 214.078313 
L 266.91759 226.073614 
L 268.138652 224.224316 
L 269.400417 240.517636 
L 270.662182 248.871847 
L 271.883245 249.100725 
L 273.14501 259.985153 
L 274.366072 264.185298 
L 275.627837 262.677603 
L 276.889602 269.471183 
L 278.029261 267.720329 
L 279.291026 266.864229 
L 280.512088 271.33838 
L 281.773853 273.554034 
L 284.256681 289.01258 
L 286.739508 294.70614 
L 288.001273 287.057221 
L 289.222336 285.599985 
L 290.484101 276.662347 
L 291.745866 275.388289 
L 292.885524 263.696506 
L 294.147289 263.175154 
L 295.368352 268.253106 
L 296.630117 263.761057 
L 297.851179 254.712217 
L 299.112944 240.364163 
L 300.374709 242.218602 
L 301.595772 246.122464 
L 304.078599 248.857757 
L 305.340364 251.985302 
L 306.602129 252.224461 
L 307.78249 244.103507 
L 309.044255 247.986043 
L 310.265317 244.786712 
L 311.527082 244.645615 
L 312.748145 258.831817 
L 314.00991 257.265284 
L 315.271675 259.442474 
L 317.754502 263.098988 
L 318.975565 266.902883 
L 320.23733 265.529238 
L 321.499095 268.897657 
L 322.638753 264.775581 
L 323.900518 263.85912 
L 325.121581 266.051924 
L 326.383346 267.588943 
L 327.604409 278.436051 
L 328.866173 280.276589 
L 330.127938 277.521874 
L 332.610766 269.840205 
L 333.831829 267.793448 
L 335.093593 269.726528 
L 336.355358 276.146326 
L 338.756782 268.938215 
L 339.977844 266.897361 
L 341.239609 275.550331 
L 342.460672 286.266053 
L 343.722437 291.41998 
L 344.984202 285.20621 
L 346.205265 287.097399 
L 347.467029 289.941608 
L 348.688092 299.005301 
L 349.949857 300.537369 
L 351.211622 306.066222 
L 352.35128 301.818282 
L 353.613045 293.272134 
L 354.834108 291.136835 
L 356.095873 294.991189 
L 357.316936 305.562006 
L 358.5787 308.491331 
L 359.840465 302.744264 
L 361.061528 302.8528 
L 362.323293 297.698872 
L 363.544356 302.662386 
L 364.80612 297.593193 
L 366.067885 295.294709 
L 367.248246 295.090585 
L 368.510011 297.759424 
L 369.731074 292.654813 
L 370.992838 251.186136 
L 372.213901 275.249858 
L 373.475666 270.272825 
L 374.737431 274.276654 
L 375.958494 275.580416 
L 377.220258 283.315211 
L 378.441321 278.274389 
L 379.703086 281.784856 
L 380.964851 282.882591 
L 382.104509 286.395153 
L 383.366274 286.463131 
L 384.587337 289.860111 
L 385.849102 288.023761 
L 387.070165 299.99469 
L 388.33193 295.551006 
L 389.593694 296.899706 
L 390.814757 295.281189 
L 392.076522 295.454085 
L 393.297585 296.159377 
L 394.55935 296.688347 
L 396.960773 291.156829 
L 398.222538 284.223485 
L 399.443601 285.928259 
L 400.705365 281.134022 
L 401.926428 291.19453 
L 403.188193 298.102359 
L 404.449958 299.961558 
L 405.671021 299.518846 
L 406.932785 300.248893 
L 408.153848 302.279274 
L 409.415613 298.049043 
L 410.677378 298.767855 
L 411.817036 298.196423 
L 413.078801 299.989168 
L 414.299864 302.610975 
L 415.561629 309.370852 
L 416.782692 298.542976 
L 418.044457 300.646667 
L 419.306221 302.375052 
L 420.527284 301.825137 
L 421.789049 306.020903 
L 423.010112 304.813871 
L 424.271877 300.966371 
L 425.533641 300.457015 
L 426.714002 303.171172 
L 427.975767 308.692408 
L 429.19683 305.805926 
L 430.458595 308.755434 
L 431.679657 318.131215 
L 432.941422 318.983697 
L 434.203187 319.551892 
L 435.42425 321.82486 
L 436.686015 320.046586 
L 437.907077 321.415851 
L 439.168842 321.963672 
L 440.430607 322.707428 
L 441.570266 319.797525 
L 442.83203 320.715129 
L 444.053093 322.779404 
L 445.314858 323.265149 
L 446.535921 321.571991 
L 447.797686 322.724946 
L 449.05945 320.95505 
L 450.280513 317.781235 
L 452.763341 307.749479 
L 454.025106 311.504628 
L 455.286871 312.156414 
L 456.426529 316.590387 
L 457.688294 318.069711 
L 458.909357 316.515364 
L 461.392184 329.315354 
L 462.653949 329.01888 
L 463.915714 330.643109 
L 465.136777 330.643109 
L 466.398542 331.519774 
L 467.619604 329.75502 
L 468.881369 330.085959 
L 470.143134 329.052393 
L 471.282793 327.344953 
L 472.544557 327.67494 
L 473.76562 325.441578 
L 475.027385 324.200652 
L 476.248448 323.438426 
L 477.510213 320.737217 
L 478.771977 317.062423 
L 479.99304 312.826099 
L 481.254805 313.163702 
L 482.475868 306.864246 
L 483.737633 306.914134 
L 484.999398 303.47869 
L 486.179758 299.560166 
L 487.441523 286.98734 
L 488.662586 281.751915 
L 489.924351 280.483379 
L 491.145413 291.444353 
L 492.407178 286.781122 
L 493.668943 299.623574 
L 494.890006 308.025769 
L 496.151771 306.659551 
L 497.372833 310.14336 
L 498.634598 306.864436 
L 499.896363 300.308873 
L 501.036022 296.292477 
L 502.297787 301.052819 
L 503.518849 307.164528 
L 504.780614 311.288508 
L 506.001677 303.267521 
L 507.263442 303.516773 
L 508.525207 306.813596 
L 509.746269 300.506522 
L 511.008034 302.628683 
L 512.229097 307.00896 
L 513.490862 304.784166 
L 514.752627 307.739387 
L 515.892285 310.776866 
L 518.375113 318.240703 
L 519.636878 315.407918 
L 520.85794 324.625846 
L 522.119705 331.654206 
L 524.602533 326.859398 
L 525.864298 326.789326 
L 527.08536 330.65739 
L 528.347125 330.422991 
L 529.60889 332.703195 
L 530.748549 329.22129 
L 532.010314 331.959439 
L 533.231376 331.792256 
L 534.493141 333.113537 
L 535.714204 335.974693 
L 536.975969 335.21837 
L 538.237734 337.500668 
L 539.458796 339.316073 
L 540.720561 341.408338 
L 541.941624 340.624215 
L 543.203389 337.586164 
L 544.465154 338.385521 
L 545.645514 336.118265 
L 546.907279 338.547563 
L 548.128342 339.819526 
L 549.390107 346.520946 
L 550.61117 349.228058 
L 551.872934 348.66272 
L 553.134699 348.458787 
L 554.355762 347.113514 
L 555.617527 346.762201 
L 556.83859 345.030197 
L 558.100354 348.532667 
L 559.362119 347.670664 
L 560.501778 350.528964 
L 561.763543 350.965393 
L 562.984605 353.079556 
L 564.24637 353.552544 
L 565.467433 350.592563 
L 566.729198 350.453941 
L 567.990963 352.766135 
L 569.212025 353.938512 
L 570.47379 353.515032 
L 571.694853 354.933233 
L 572.956618 355.303207 
L 575.358041 356.552702 
L 576.619806 357.411277 
L 577.840869 355.84284 
L 579.102634 354.507468 
L 580.323697 352.904947 
L 581.585461 351.815971 
L 582.847226 353.594625 
L 584.068289 354.025912 
L 586.551117 355.31844 
L 587.812881 355.049195 
L 589.074646 355.82913 
L 590.214305 355.482577 
L 591.47607 356.093995 
L 592.697132 354.710259 
L 593.958897 356.467968 
L 595.17996 358.390766 
L 596.441725 355.418979 
L 597.70349 357.668146 
L 598.924552 354.843739 
L 601.40738 355.508283 
L 602.669145 352.409681 
L 603.93091 350.336075 
L 605.11127 348.632063 
L 606.373035 349.003179 
L 607.594098 350.728899 
L 610.076926 359.629216 
L 611.33869 358.642112 
L 612.600455 361.635415 
L 613.821518 361.9138 
L 615.083283 362.787037 
L 616.304346 362.699066 
L 617.566111 363.380747 
L 618.827875 361.846774 
L 619.967534 362.672408 
L 621.229299 363.309532 
L 622.450362 362.616807 
L 623.712126 363.326098 
L 624.933189 362.211797 
L 626.194954 364.779717 
L 628.677782 366.269513 
L 629.939546 366.859225 
L 631.160609 365.898207 
L 632.422374 365.692179 
L 633.684139 365.079999 
L 634.823797 365.26013 
L 637.306625 365.024398 
L 638.56839 366.075101 
L 641.051218 366.981089 
L 642.312982 366.178496 
L 643.534045 362.954411 
L 644.79581 360.010425 
L 646.016873 360.023563 
L 647.278638 359.29485 
L 648.540402 358.295749 
L 649.680061 361.434909 
L 650.941826 362.380694 
L 652.162889 361.258015 
L 653.424653 363.89296 
L 654.645716 364.842744 
L 655.907481 364.894155 
L 657.169246 363.421876 
L 658.390309 363.282684 
L 659.652073 362.815028 
L 660.873136 360.42724 
L 663.396666 356.582597 
L 664.577027 356.116464 
L 665.838791 354.769097 
L 667.059854 355.319964 
L 668.321619 350.057691 
L 669.542682 356.300023 
L 670.804447 357.311881 
L 673.287274 364.560931 
L 674.549039 366.652626 
L 675.770102 365.067432 
L 678.293632 367.24824 
L 679.43329 365.532993 
L 680.695055 365.935337 
L 681.916118 364.736302 
L 683.177883 367.984189 
L 685.66071 369.035844 
L 686.922475 368.531438 
L 688.143538 367.752646 
L 689.405303 366.510768 
L 690.626365 366.612639 
L 691.88813 368.584944 
L 693.149895 367.897931 
L 694.289554 369.346789 
L 695.551318 368.677295 
L 696.772381 369.198267 
L 698.034146 369.373257 
L 700.516974 367.454839 
L 701.778738 365.750255 
L 702.999801 363.147871 
L 704.261566 364.724116 
L 705.482629 362.22665 
L 706.744394 361.330563 
L 708.006159 359.542959 
L 709.145817 360.635934 
L 710.407582 359.017798 
L 711.628645 359.275808 
L 712.89041 361.989775 
L 714.111472 361.484227 
L 715.373237 358.973622 
L 716.635002 363.929329 
L 717.856065 362.385836 
L 719.11783 363.696643 
L 720.338892 362.619473 
L 721.600657 362.829309 
L 722.862422 362.414017 
L 724.042783 362.803222 
L 725.304548 362.796367 
L 726.52561 365.027445 
L 727.787375 361.78946 
L 729.008438 356.431599 
L 730.270203 356.850128 
L 731.531968 358.147798 
L 732.75303 358.16265 
L 734.014795 358.380102 
L 735.235858 359.996715 
L 736.497623 358.743602 
L 737.759388 359.681199 
L 738.899046 359.927785 
L 740.160811 360.697056 
L 741.381874 360.327654 
L 743.864701 363.535744 
L 745.126466 363.614575 
L 746.388231 365.050866 
L 747.609294 365.520616 
L 748.871059 365.88145 
L 750.092121 365.96885 
L 751.353886 365.54975 
L 752.615651 364.730971 
L 753.75531 363.403787 
L 755.017075 363.008108 
L 756.238137 364.824083 
L 757.499902 366.267609 
L 758.720965 368.397006 
L 759.98273 368.359875 
L 761.244495 369.849482 
L 762.465557 367.953723 
L 763.727322 367.974478 
L 764.948385 367.704281 
L 764.948385 367.704281 
" clip-path="url(#p76860e18a1)" style="fill: none; stroke: #1f77b4; stroke-width: 1.2; stroke-linecap: square"/>
   </g>
   <g id="patch_3">
    <path d="M 65.169531 386.398594 
L 65.169531 22.318125 
" style="fill: none; stroke: #000000; stroke-width: 0.8; stroke-linejoin: miter; stroke-linecap: square"/>
   </g>
   <g id="patch_4">
    <path d="M 65.169531 386.398594 
L 798.271187 386.398594 
" style="fill: none; stroke: #000000; stroke-width: 0.8; stroke-linejoin: miter; stroke-linecap: square"/>
   </g>
   <g id="text_20">
    <!-- ZC: cumulative price return -->
    <g transform="translate(349.045984 16.318125) scale(0.12 -0.12)">
     <defs>
      <path id="DejaVuSans-3d" d="M 359 4666 
L 4025 4666 
L 4025 4184 
L 1075 531 
L 4097 531 
L 4097 0 
L 288 0 
L 288 481 
L 3238 4134 
L 359 4134 
L 359 4666 
z
" transform="scale(0.015625)"/>
      <path id="DejaVuSans-1d" d="M 750 794 
L 1409 794 
L 1409 0 
L 750 0 
L 750 794 
z
M 750 3309 
L 1409 3309 
L 1409 2516 
L 750 2516 
L 750 3309 
z
" transform="scale(0.015625)"/>
      <path id="DejaVuSans-46" d="M 3122 3366 
L 3122 2828 
Q 2878 2963 2633 3030 
Q 2388 3097 2138 3097 
Q 1578 3097 1268 2742 
Q 959 2388 959 1747 
Q 959 1106 1268 751 
Q 1578 397 2138 397 
Q 2388 397 2633 464 
Q 2878 531 3122 666 
L 3122 134 
Q 2881 22 2623 -34 
Q 2366 -91 2075 -91 
Q 1284 -91 818 406 
Q 353 903 353 1747 
Q 353 2603 823 3093 
Q 1294 3584 2113 3584 
Q 2378 3584 2631 3529 
Q 2884 3475 3122 3366 
z
" transform="scale(0.015625)"/>
      <path id="DejaVuSans-53" d="M 1159 525 
L 1159 -1331 
L 581 -1331 
L 581 3500 
L 1159 3500 
L 1159 2969 
Q 1341 3281 1617 3432 
Q 1894 3584 2278 3584 
Q 2916 3584 3314 3078 
Q 3713 2572 3713 1747 
Q 3713 922 3314 415 
Q 2916 -91 2278 -91 
Q 1894 -91 1617 61 
Q 1341 213 1159 525 
z
M 3116 1747 
Q 3116 2381 2855 2742 
Q 2594 3103 2138 3103 
Q 1681 3103 1420 2742 
Q 1159 2381 1159 1747 
Q 1159 1113 1420 752 
Q 1681 391 2138 391 
Q 2594 391 2855 752 
Q 3116 1113 3116 1747 
z
" transform="scale(0.015625)"/>
     </defs>
     <use xlink:href="#DejaVuSans-3d"/>
     <use xlink:href="#DejaVuSans-26" transform="translate(68.5 0)"/>
     <use xlink:href="#DejaVuSans-1d" transform="translate(138.328125 0)"/>
     <use xlink:href="#DejaVuSans-3" transform="translate(172.015625 0)"/>
     <use xlink:href="#DejaVuSans-46" transform="translate(203.796875 0)"/>
     <use xlink:href="#DejaVuSans-58" transform="translate(258.78125 0)"/>
     <use xlink:href="#DejaVuSans-50" transform="translate(322.15625 0)"/>
     <use xlink:href="#DejaVuSans-58" transform="translate(419.5625 0)"/>
     <use xlink:href="#DejaVuSans-4f" transform="translate(482.9375 0)"/>
     <use xlink:href="#DejaVuSans-44" transform="translate(510.71875 0)"/>
     <use xlink:href="#DejaVuSans-57" transform="translate(572 0)"/>
     <use xlink:href="#DejaVuSans-4c" transform="translate(611.203125 0)"/>
     <use xlink:href="#DejaVuSans-59" transform="translate(638.984375 0)"/>
     <use xlink:href="#DejaVuSans-48" transform="translate(698.171875 0)"/>
     <use xlink:href="#DejaVuSans-3" transform="translate(759.703125 0)"/>
     <use xlink:href="#DejaVuSans-53" transform="translate(791.484375 0)"/>
     <use xlink:href="#DejaVuSans-55" transform="translate(854.96875 0)"/>
     <use xlink:href="#DejaVuSans-4c" transform="translate(896.078125 0)"/>
     <use xlink:href="#DejaVuSans-46" transform="translate(923.859375 0)"/>
     <use xlink:href="#DejaVuSans-48" transform="translate(978.84375 0)"/>
     <use xlink:href="#DejaVuSans-3" transform="translate(1040.375 0)"/>
     <use xlink:href="#DejaVuSans-55" transform="translate(1072.15625 0)"/>
     <use xlink:href="#DejaVuSans-48" transform="translate(1111.0625 0)"/>
     <use xlink:href="#DejaVuSans-57" transform="translate(1172.59375 0)"/>
     <use xlink:href="#DejaVuSans-58" transform="translate(1211.796875 0)"/>
     <use xlink:href="#DejaVuSans-55" transform="translate(1275.171875 0)"/>
     <use xlink:href="#DejaVuSans-51" transform="translate(1314.53125 0)"/>
    </g>
   </g>
   <g id="legend_1">
    <g id="patch_5">
     <path d="M 811.202204 40.71875 
L 847.868454 40.71875 
Q 849.468454 40.71875 849.468454 39.11875 
L 849.468454 27.918125 
Q 849.468454 26.318125 847.868454 26.318125 
L 811.202204 26.318125 
Q 809.602204 26.318125 809.602204 27.918125 
L 809.602204 39.11875 
Q 809.602204 40.71875 811.202204 40.71875 
z
" style="fill: #ffffff; opacity: 0.8; stroke: #cccccc; stroke-linejoin: miter"/>
    </g>
    <g id="line2d_36">
     <path d="M 812.802204 32.796875 
L 820.802204 32.796875 
L 828.802204 32.796875 
" style="fill: none; stroke: #1f77b4; stroke-width: 1.2; stroke-linecap: square"/>
    </g>
    <g id="text_21">
     <!-- ZC -->
     <g transform="translate(835.202204 35.596875) scale(0.08 -0.08)">
      <use xlink:href="#DejaVuSans-3d"/>
      <use xlink:href="#DejaVuSans-26" transform="translate(68.5 0)"/>
     </g>
    </g>
   </g>
  </g>
 </g>
 <defs>
  <clipPath id="p76860e18a1">
   <rect x="65.169531" y="22.318125" width="733.101656" height="364.080469"/>
  </clipPath>
 </defs>
</svg>
